<svg width="61" height="60" viewBox="0 0 61 60" fill="none" xmlns="http://www.w3.org/2000/svg">
<path d="M29.25 17.5C30.9076 17.5 32.4973 18.1585 33.6694 19.3306C34.8415 20.5027 35.5 22.0924 35.5 23.75C35.5 24.5708 35.3383 25.3835 35.0242 26.1418C34.7102 26.9001 34.2498 27.5891 33.6694 28.1694C33.0891 28.7498 32.4001 29.2102 31.6418 29.5243C30.8835 29.8383 30.0708 30 29.25 30C27.5924 30 26.0027 29.3415 24.8306 28.1694C23.6585 26.9973 23 25.4076 23 23.75C23 22.0924 23.6585 20.5027 24.8306 19.3306C26.0027 18.1585 27.5924 17.5 29.25 17.5ZM29.25 20C28.2554 20 27.3016 20.3951 26.5983 21.0984C25.8951 21.8016 25.5 22.7554 25.5 23.75C25.5 24.7446 25.8951 25.6984 26.5983 26.4017C27.3016 27.1049 28.2554 27.5 29.25 27.5C30.2446 27.5 31.1984 27.1049 31.9017 26.4017C32.6049 25.6984 33 24.7446 33 23.75C33 22.7554 32.6049 21.8016 31.9017 21.0984C31.1984 20.3951 30.2446 20 29.25 20ZM17.5 30.9L29.25 50.225L41 30.9C42.275 28.75 43 26.375 43 23.75C43 20.1033 41.5513 16.6059 38.9727 14.0273C36.3941 11.4487 32.8967 10 29.25 10C25.6033 10 22.1059 11.4487 19.5273 14.0273C16.9487 16.6059 15.5 20.1033 15.5 23.75C15.5 26.375 16.225 28.75 17.5 30.9ZM43.125 32.2L29.25 55L15.375 32.2C13.875 29.725 13 26.85 13 23.75C13 19.4402 14.712 15.307 17.7595 12.2595C20.807 9.21205 24.9402 7.5 29.25 7.5C33.5598 7.5 37.693 9.21205 40.7405 12.2595C43.7879 15.307 45.5 19.4402 45.5 23.75C45.5 26.85 44.625 29.725 43.125 32.2Z" fill="black"/>
</svg>
