<svg width="158" height="65" viewBox="0 0 158 65" fill="none" xmlns="http://www.w3.org/2000/svg">
<path d="M21.696 12.344V12.984C20.9707 13.0267 20.4267 13.1547 20.064 13.368C19.7013 13.5813 19.456 13.9333 19.328 14.424C19.2213 14.8933 19.168 15.5653 19.168 16.44V35.128C18.9973 35.128 18.8267 35.128 18.656 35.128C18.4853 35.128 18.304 35.128 18.112 35.128L4.544 15.416V30.776C4.544 31.672 4.608 32.376 4.736 32.888C4.864 33.3787 5.14133 33.7307 5.568 33.944C5.99467 34.1573 6.64533 34.296 7.52 34.36V35C7.11467 34.9573 6.592 34.936 5.952 34.936C5.33333 34.9147 4.74667 34.904 4.192 34.904C3.65867 34.904 3.12533 34.9147 2.592 34.936C2.05867 34.936 1.62133 34.9573 1.28 35V34.36C1.984 34.296 2.51733 34.168 2.88 33.976C3.24267 33.7627 3.488 33.4107 3.616 32.92C3.744 32.4293 3.808 31.7573 3.808 30.904V15.736C3.808 14.9467 3.744 14.3707 3.616 14.008C3.488 13.624 3.24267 13.368 2.88 13.24C2.51733 13.0907 1.984 13.0053 1.28 12.984V12.344C1.62133 12.3653 2.05867 12.3867 2.592 12.408C3.12533 12.4293 3.65867 12.44 4.192 12.44C4.66133 12.44 5.12 12.4293 5.568 12.408C6.016 12.3867 6.41067 12.3653 6.752 12.344L18.432 29.048V16.568C18.432 15.6507 18.3573 14.9467 18.208 14.456C18.08 13.9653 17.8027 13.6133 17.376 13.4C16.9493 13.1653 16.3093 13.0267 15.456 12.984V12.344C15.84 12.3653 16.352 12.3867 16.992 12.408C17.632 12.4293 18.2293 12.44 18.784 12.44C19.3173 12.44 19.8507 12.4293 20.384 12.408C20.9173 12.3867 21.3547 12.3653 21.696 12.344ZM27.4385 35.224C26.5425 35.224 25.7745 35.0533 25.1345 34.712C24.4945 34.3707 24.0145 33.9013 23.6945 33.304C23.3745 32.7067 23.2145 32.024 23.2145 31.256C23.2145 30.3173 23.4278 29.56 23.8545 28.984C24.2812 28.3867 24.8252 27.9067 25.4865 27.544C26.1692 27.1813 26.8838 26.8827 27.6305 26.648C28.3985 26.392 29.1132 26.1573 29.7745 25.944C30.4572 25.7093 31.0118 25.4427 31.4385 25.144C31.8865 24.8453 32.1105 24.4507 32.1105 23.96V21.784C32.1105 21.016 31.9825 20.408 31.7265 19.96C31.4918 19.4907 31.1612 19.16 30.7345 18.968C30.3292 18.776 29.8385 18.68 29.2625 18.68C28.7718 18.68 28.2492 18.7547 27.6945 18.904C27.1398 19.032 26.7025 19.2987 26.3825 19.704C26.8518 19.832 27.2358 20.088 27.5345 20.472C27.8545 20.8347 28.0145 21.2933 28.0145 21.848C28.0145 22.4453 27.8118 22.9147 27.4065 23.256C27.0225 23.5973 26.5318 23.768 25.9345 23.768C25.2732 23.768 24.7825 23.5653 24.4625 23.16C24.1425 22.7333 23.9825 22.2427 23.9825 21.688C23.9825 21.112 24.1212 20.6427 24.3985 20.28C24.6972 19.9173 25.0812 19.576 25.5505 19.256C26.0625 18.9147 26.7132 18.6267 27.5025 18.392C28.3132 18.1573 29.2092 18.04 30.1905 18.04C31.1078 18.04 31.8972 18.1467 32.5585 18.36C33.2412 18.552 33.8065 18.872 34.2545 19.32C34.7878 19.8107 35.1398 20.4293 35.3105 21.176C35.4812 21.9013 35.5665 22.7867 35.5665 23.832V32.664C35.5665 33.1973 35.6305 33.5813 35.7585 33.816C35.9078 34.0293 36.1425 34.136 36.4625 34.136C36.6758 34.136 36.8785 34.0827 37.0705 33.976C37.2838 33.8693 37.5292 33.7093 37.8065 33.496L38.1265 34.04C37.6785 34.4027 37.2198 34.6907 36.7505 34.904C36.3025 35.1173 35.7265 35.224 35.0225 35.224C34.3398 35.224 33.7852 35.1173 33.3585 34.904C32.9318 34.6907 32.6118 34.3813 32.3985 33.976C32.2065 33.5707 32.1105 33.0693 32.1105 32.472C31.5558 33.368 30.8945 34.0507 30.1265 34.52C29.3585 34.9893 28.4625 35.224 27.4385 35.224ZM28.9745 33.688C29.5718 33.688 30.1265 33.5173 30.6385 33.176C31.1718 32.8347 31.6625 32.3227 32.1105 31.64V25.272C31.8758 25.6133 31.5345 25.912 31.0865 26.168C30.6385 26.4027 30.1585 26.648 29.6465 26.904C29.1345 27.16 28.6438 27.4587 28.1745 27.8C27.7265 28.12 27.3532 28.536 27.0545 29.048C26.7558 29.56 26.6065 30.2107 26.6065 31C26.6065 31.832 26.8198 32.4933 27.2465 32.984C27.6732 33.4533 28.2492 33.688 28.9745 33.688ZM42.9227 10.424C43.5841 10.424 44.1388 10.6373 44.5868 11.064C45.0348 11.4693 45.2588 11.9813 45.2588 12.6C45.2588 13.2187 45.0348 13.7413 44.5868 14.168C44.1388 14.5733 43.5841 14.776 42.9227 14.776C42.2614 14.776 41.7068 14.5733 41.2588 14.168C40.8108 13.7413 40.5868 13.2187 40.5868 12.6C40.5868 11.9813 40.8108 11.4693 41.2588 11.064C41.7068 10.6373 42.2614 10.424 42.9227 10.424ZM44.8428 18.136V32.024C44.8428 32.92 45.0134 33.528 45.3548 33.848C45.7174 34.168 46.3148 34.328 47.1468 34.328V35C46.7841 34.9787 46.2188 34.9573 45.4508 34.936C44.7041 34.8933 43.9361 34.872 43.1468 34.872C42.4001 34.872 41.6321 34.8933 40.8428 34.936C40.0534 34.9573 39.4668 34.9787 39.0828 35V34.328C39.9147 34.328 40.5014 34.168 40.8428 33.848C41.2054 33.528 41.3868 32.92 41.3868 32.024V21.976C41.3868 21.016 41.2268 20.312 40.9068 19.864C40.5868 19.3947 39.9788 19.16 39.0828 19.16V18.488C39.7654 18.552 40.4268 18.584 41.0668 18.584C41.7921 18.584 42.4641 18.552 43.0828 18.488C43.7228 18.4027 44.3094 18.2853 44.8428 18.136ZM54.2445 9.912V32.024C54.2445 32.92 54.4152 33.528 54.7565 33.848C55.1192 34.168 55.7165 34.328 56.5485 34.328V35C56.1858 34.9787 55.6205 34.9573 54.8525 34.936C54.0845 34.8933 53.3165 34.872 52.5485 34.872C51.7805 34.872 51.0018 34.8933 50.2125 34.936C49.4445 34.9573 48.8685 34.9787 48.4845 35V34.328C49.3165 34.328 49.9032 34.168 50.2445 33.848C50.6072 33.528 50.7885 32.92 50.7885 32.024V13.752C50.7885 12.792 50.6285 12.088 50.3085 11.64C49.9885 11.1707 49.3805 10.936 48.4845 10.936V10.264C49.1672 10.328 49.8285 10.36 50.4685 10.36C51.1725 10.36 51.8445 10.328 52.4845 10.264C53.1245 10.1787 53.7112 10.0613 54.2445 9.912ZM67.5868 12.344C71.5334 12.344 74.4668 13.304 76.3868 15.224C78.3068 17.1227 79.2668 19.8533 79.2668 23.416C79.2668 25.7413 78.7974 27.7787 77.8588 29.528C76.9201 31.256 75.5548 32.6 73.7628 33.56C71.9921 34.52 69.8374 35 67.2988 35C66.9788 35 66.5414 34.9893 65.9868 34.968C65.4534 34.9467 64.8988 34.936 64.3228 34.936C63.7468 34.9147 63.2241 34.904 62.7548 34.904C61.9441 34.904 61.1441 34.9147 60.3548 34.936C59.5868 34.936 58.9574 34.9573 58.4668 35V34.36C59.1921 34.3173 59.7361 34.232 60.0988 34.104C60.4614 33.976 60.6961 33.72 60.8028 33.336C60.9308 32.952 60.9948 32.376 60.9948 31.608V15.736C60.9948 14.9467 60.9308 14.3707 60.8028 14.008C60.6961 13.624 60.4508 13.368 60.0668 13.24C59.7041 13.0907 59.1708 13.0053 58.4668 12.984V12.344C58.9574 12.3653 59.5868 12.3973 60.3548 12.44C61.1441 12.4613 61.9228 12.4613 62.6908 12.44C63.4588 12.4187 64.3121 12.3973 65.2508 12.376C66.2108 12.3547 66.9894 12.344 67.5868 12.344ZM67.0428 12.92C66.0614 12.92 65.4214 13.1013 65.1228 13.464C64.8241 13.8267 64.6748 14.5627 64.6748 15.672V31.672C64.6748 32.7813 64.8241 33.5173 65.1228 33.88C65.4428 34.2427 66.0934 34.424 67.0748 34.424C69.2294 34.424 70.9041 34.008 72.0988 33.176C73.2934 32.3227 74.1361 31.0853 74.6268 29.464C75.1174 27.8427 75.3628 25.8693 75.3628 23.544C75.3628 21.1547 75.0961 19.1813 74.5628 17.624C74.0294 16.0453 73.1548 14.872 71.9388 14.104C70.7441 13.3147 69.1121 12.92 67.0428 12.92ZM89.7375 18.04C91.6148 18.04 93.0868 18.6053 94.1535 19.736C95.2202 20.8667 95.7535 22.6587 95.7535 25.112H84.7135L84.6495 24.504H92.3615C92.3828 23.4587 92.2975 22.4987 92.1055 21.624C91.9135 20.728 91.6148 20.0133 91.2095 19.48C90.8042 18.9467 90.2708 18.68 89.6095 18.68C88.6922 18.68 87.8922 19.1707 87.2095 20.152C86.5482 21.112 86.1428 22.6587 85.9935 24.792L86.0895 24.952C86.0682 25.2507 86.0468 25.5813 86.0255 25.944C86.0042 26.2853 85.9935 26.6267 85.9935 26.968C85.9935 28.44 86.2175 29.6773 86.6655 30.68C87.1135 31.6827 87.7002 32.44 88.4255 32.952C89.1508 33.4427 89.8868 33.688 90.6335 33.688C91.2095 33.688 91.7642 33.6027 92.2975 33.432C92.8522 33.24 93.3748 32.9307 93.8655 32.504C94.3562 32.056 94.7935 31.448 95.1775 30.68L95.8175 30.936C95.5615 31.6613 95.1668 32.376 94.6335 33.08C94.1002 33.784 93.4175 34.36 92.5855 34.808C91.7535 35.2347 90.7828 35.448 89.6735 35.448C88.1802 35.448 86.8788 35.1173 85.7695 34.456C84.6602 33.7733 83.8068 32.8027 83.2095 31.544C82.6122 30.2853 82.3135 28.792 82.3135 27.064C82.3135 25.1653 82.6228 23.544 83.2415 22.2C83.8602 20.856 84.7242 19.832 85.8335 19.128C86.9642 18.4027 88.2655 18.04 89.7375 18.04ZM103.91 18.04C104.763 18.04 105.499 18.1787 106.118 18.456C106.758 18.712 107.216 18.9467 107.494 19.16C108.198 19.7147 108.635 19.352 108.806 18.072H109.51C109.467 18.6693 109.435 19.3947 109.414 20.248C109.392 21.08 109.382 22.1893 109.382 23.576H108.678C108.55 22.7867 108.326 22.0187 108.006 21.272C107.707 20.5253 107.259 19.9067 106.662 19.416C106.086 18.9253 105.328 18.68 104.39 18.68C103.686 18.68 103.099 18.8827 102.63 19.288C102.16 19.672 101.926 20.248 101.926 21.016C101.926 21.656 102.118 22.2107 102.502 22.68C102.886 23.1493 103.376 23.5867 103.974 23.992C104.592 24.3973 105.254 24.8347 105.958 25.304C106.747 25.8373 107.451 26.3707 108.07 26.904C108.71 27.416 109.211 27.992 109.574 28.632C109.958 29.272 110.15 30.0187 110.15 30.872C110.15 31.8533 109.883 32.6853 109.35 33.368C108.838 34.0507 108.155 34.5733 107.302 34.936C106.448 35.2773 105.51 35.448 104.486 35.448C103.974 35.448 103.494 35.3947 103.046 35.288C102.598 35.2027 102.182 35.0853 101.798 34.936C101.563 34.808 101.328 34.68 101.094 34.552C100.88 34.4027 100.667 34.264 100.454 34.136C100.24 33.9867 100.048 34.008 99.8778 34.2C99.7071 34.392 99.5791 34.7333 99.4938 35.224H98.7898C98.8324 34.5413 98.8644 33.7093 98.8858 32.728C98.9071 31.7467 98.9178 30.4453 98.9178 28.824H99.6218C99.7711 29.9973 99.9951 31.032 100.294 31.928C100.592 32.824 101.03 33.528 101.606 34.04C102.203 34.5307 103.014 34.776 104.038 34.776C104.443 34.776 104.848 34.6907 105.254 34.52C105.659 34.328 105.99 34.0293 106.246 33.624C106.523 33.2187 106.662 32.6747 106.662 31.992C106.662 31.0533 106.331 30.2853 105.67 29.688C105.03 29.0693 104.198 28.4187 103.174 27.736C102.448 27.224 101.755 26.7227 101.094 26.232C100.454 25.72 99.9311 25.1547 99.5258 24.536C99.1204 23.896 98.9178 23.1387 98.9178 22.264C98.9178 21.304 99.1418 20.5147 99.5898 19.896C100.059 19.2773 100.678 18.8187 101.446 18.52C102.214 18.2 103.035 18.04 103.91 18.04ZM116.266 10.424C116.928 10.424 117.483 10.6373 117.931 11.064C118.379 11.4693 118.603 11.9813 118.603 12.6C118.603 13.2187 118.379 13.7413 117.931 14.168C117.483 14.5733 116.928 14.776 116.266 14.776C115.605 14.776 115.051 14.5733 114.603 14.168C114.155 13.7413 113.931 13.2187 113.931 12.6C113.931 11.9813 114.155 11.4693 114.603 11.064C115.051 10.6373 115.605 10.424 116.266 10.424ZM118.187 18.136V32.024C118.187 32.92 118.357 33.528 118.699 33.848C119.061 34.168 119.659 34.328 120.491 34.328V35C120.128 34.9787 119.563 34.9573 118.795 34.936C118.048 34.8933 117.28 34.872 116.491 34.872C115.744 34.872 114.976 34.8933 114.187 34.936C113.397 34.9573 112.811 34.9787 112.427 35V34.328C113.258 34.328 113.845 34.168 114.187 33.848C114.549 33.528 114.731 32.92 114.731 32.024V21.976C114.731 21.016 114.571 20.312 114.251 19.864C113.931 19.3947 113.323 19.16 112.427 19.16V18.488C113.109 18.552 113.771 18.584 114.411 18.584C115.136 18.584 115.808 18.552 116.427 18.488C117.067 18.4027 117.653 18.2853 118.187 18.136ZM128.036 41.016C126.842 41.016 125.732 40.8987 124.708 40.664C123.706 40.4293 122.895 40.0667 122.276 39.576C121.679 39.1067 121.38 38.4987 121.38 37.752C121.38 37.048 121.679 36.4293 122.276 35.896C122.874 35.3627 123.716 34.9573 124.804 34.68L125.028 35.192C124.58 35.384 124.228 35.6933 123.972 36.12C123.738 36.5467 123.62 37.016 123.62 37.528C123.62 38.4667 124.058 39.192 124.932 39.704C125.807 40.216 126.959 40.472 128.388 40.472C129.348 40.472 130.255 40.344 131.108 40.088C131.983 39.8533 132.687 39.4587 133.22 38.904C133.775 38.3493 134.052 37.6347 134.052 36.76C134.052 36.0773 133.807 35.5013 133.316 35.032C132.826 34.584 131.855 34.36 130.404 34.36H128.164C127.418 34.36 126.724 34.296 126.084 34.168C125.444 34.04 124.922 33.7947 124.516 33.432C124.132 33.048 123.94 32.5147 123.94 31.832C123.94 31.064 124.26 30.3387 124.9 29.656C125.54 28.9733 126.618 28.3013 128.132 27.64L128.516 27.928C127.898 28.2693 127.343 28.6213 126.852 28.984C126.383 29.3253 126.148 29.752 126.148 30.264C126.148 30.9467 126.639 31.288 127.62 31.288H131.428C132.431 31.288 133.338 31.4267 134.148 31.704C134.959 31.96 135.61 32.376 136.1 32.952C136.591 33.528 136.836 34.2853 136.836 35.224C136.836 36.2267 136.506 37.1653 135.844 38.04C135.204 38.936 134.234 39.6507 132.932 40.184C131.631 40.7387 129.999 41.016 128.036 41.016ZM128.228 28.184C127.14 28.184 126.148 28.0133 125.252 27.672C124.356 27.3093 123.652 26.7547 123.14 26.008C122.628 25.2613 122.372 24.3013 122.372 23.128C122.372 21.9547 122.628 20.9947 123.14 20.248C123.652 19.48 124.356 18.9253 125.252 18.584C126.148 18.2213 127.14 18.04 128.228 18.04C129.359 18.04 130.362 18.2213 131.236 18.584C132.111 18.9253 132.804 19.48 133.316 20.248C133.828 20.9947 134.084 21.9547 134.084 23.128C134.084 24.3013 133.828 25.2613 133.316 26.008C132.804 26.7547 132.111 27.3093 131.236 27.672C130.362 28.0133 129.359 28.184 128.228 28.184ZM128.228 27.608C128.975 27.608 129.551 27.288 129.956 26.648C130.362 26.008 130.564 24.8347 130.564 23.128C130.564 21.4213 130.362 20.248 129.956 19.608C129.551 18.9467 128.975 18.616 128.228 18.616C127.524 18.616 126.959 18.9467 126.532 19.608C126.106 20.248 125.892 21.4213 125.892 23.128C125.892 24.8347 126.106 26.008 126.532 26.648C126.959 27.288 127.524 27.608 128.228 27.608ZM132.964 20.728L132.388 20.504C132.687 19.7573 133.199 19.1067 133.924 18.552C134.65 17.9973 135.407 17.72 136.196 17.72C136.794 17.72 137.263 17.8907 137.604 18.232C137.967 18.552 138.148 19.0107 138.148 19.608C138.148 20.2693 137.967 20.7387 137.604 21.016C137.263 21.2933 136.9 21.432 136.516 21.432C136.175 21.432 135.855 21.3147 135.556 21.08C135.279 20.8453 135.119 20.4827 135.076 19.992C135.034 19.48 135.194 18.8293 135.556 18.04L135.908 18.168C135.055 18.5093 134.426 18.872 134.02 19.256C133.636 19.6187 133.284 20.1093 132.964 20.728ZM150.313 18.04C151.166 18.04 151.859 18.1573 152.393 18.392C152.947 18.6053 153.406 18.904 153.769 19.288C154.153 19.6933 154.419 20.216 154.569 20.856C154.739 21.496 154.825 22.36 154.825 23.448V32.024C154.825 32.92 154.995 33.528 155.337 33.848C155.699 34.168 156.297 34.328 157.128 34.328V35C156.766 34.9787 156.201 34.9573 155.433 34.936C154.665 34.8933 153.907 34.872 153.161 34.872C152.435 34.872 151.71 34.8933 150.985 34.936C150.281 34.9573 149.747 34.9787 149.385 35V34.328C150.11 34.328 150.622 34.168 150.921 33.848C151.219 33.528 151.369 32.92 151.369 32.024V22.552C151.369 21.9333 151.315 21.3787 151.209 20.888C151.102 20.376 150.878 19.9707 150.537 19.672C150.195 19.352 149.683 19.192 149.001 19.192C148.211 19.192 147.507 19.416 146.889 19.864C146.291 20.312 145.811 20.9307 145.449 21.72C145.107 22.488 144.937 23.352 144.937 24.312V32.024C144.937 32.92 145.086 33.528 145.385 33.848C145.705 34.168 146.217 34.328 146.921 34.328V35C146.579 34.9787 146.057 34.9573 145.353 34.936C144.67 34.8933 143.955 34.872 143.209 34.872C142.483 34.872 141.726 34.8933 140.937 34.936C140.147 34.9573 139.561 34.9787 139.177 35V34.328C140.008 34.328 140.595 34.168 140.937 33.848C141.299 33.528 141.481 32.92 141.481 32.024V21.976C141.481 21.016 141.321 20.312 141.001 19.864C140.681 19.3947 140.073 19.16 139.177 19.16V18.488C139.859 18.552 140.521 18.584 141.161 18.584C141.886 18.584 142.558 18.552 143.177 18.488C143.817 18.4027 144.403 18.2853 144.937 18.136V21.624C145.491 20.3013 146.249 19.3733 147.209 18.84C148.19 18.3067 149.225 18.04 150.313 18.04Z" fill="#252525"/>
<path d="M5.152 59.144C4.448 59.144 3.84 58.9627 3.328 58.6C2.82667 58.2373 2.49067 57.752 2.32 57.144L2.496 56.968V58.44C2.496 58.6533 2.43733 58.8187 2.32 58.936C2.21333 59.0533 2.05867 59.112 1.856 59.112C1.64267 59.112 1.48267 59.0533 1.376 58.936C1.26933 58.8187 1.216 58.6533 1.216 58.44V48.264C1.216 48.0507 1.26933 47.8907 1.376 47.784C1.48267 47.6667 1.64267 47.608 1.856 47.608C2.05867 47.608 2.21867 47.6667 2.336 47.784C2.45333 47.8907 2.512 48.0507 2.512 48.264V53.032H2.32C2.50133 52.4347 2.84267 51.96 3.344 51.608C3.84533 51.256 4.448 51.08 5.152 51.08C5.856 51.08 6.464 51.2453 6.976 51.576C7.488 51.896 7.88267 52.36 8.16 52.968C8.448 53.5653 8.592 54.28 8.592 55.112C8.592 55.9333 8.448 56.648 8.16 57.256C7.88267 57.8533 7.48267 58.3173 6.96 58.648C6.448 58.9787 5.84533 59.144 5.152 59.144ZM4.88 58.104C5.37067 58.104 5.792 57.9867 6.144 57.752C6.50667 57.5173 6.784 57.176 6.976 56.728C7.17867 56.28 7.28 55.7413 7.28 55.112C7.28 54.1413 7.06133 53.4 6.624 52.888C6.19733 52.376 5.616 52.12 4.88 52.12C4.4 52.12 3.97867 52.2373 3.616 52.472C3.25333 52.696 2.97067 53.032 2.768 53.48C2.576 53.9173 2.48 54.4613 2.48 55.112C2.48 56.072 2.69867 56.8133 3.136 57.336C3.57333 57.848 4.15467 58.104 4.88 58.104ZM12.1628 61.992C12.0028 61.992 11.8748 61.9493 11.7788 61.864C11.6828 61.7787 11.6241 61.6613 11.6028 61.512C11.5921 61.3733 11.6188 61.2293 11.6828 61.08L12.7868 58.6V59.16L9.71475 52.024C9.65075 51.864 9.62942 51.7147 9.65075 51.576C9.67208 51.4373 9.73608 51.3253 9.84275 51.24C9.94942 51.1547 10.0988 51.112 10.2908 51.112C10.4614 51.112 10.5948 51.1493 10.6908 51.224C10.7868 51.2987 10.8721 51.432 10.9468 51.624L13.5708 58.056H13.1388L15.7948 51.624C15.8801 51.432 15.9708 51.2987 16.0668 51.224C16.1628 51.1493 16.3014 51.112 16.4828 51.112C16.6534 51.112 16.7814 51.1547 16.8668 51.24C16.9628 51.3253 17.0161 51.4373 17.0268 51.576C17.0481 51.704 17.0268 51.848 16.9628 52.008L12.8668 61.48C12.7814 61.672 12.6854 61.8053 12.5788 61.88C12.4828 61.9547 12.3441 61.992 12.1628 61.992ZM23.6265 59C23.4132 59 23.2478 58.9413 23.1305 58.824C23.0132 58.696 22.9545 58.5253 22.9545 58.312V48.328C22.9545 48.104 23.0078 47.9333 23.1145 47.816C23.2318 47.6987 23.3972 47.64 23.6105 47.64C23.8238 47.64 23.9838 47.6987 24.0905 47.816C24.2078 47.9333 24.2665 48.104 24.2665 48.328V57.848H29.5145C29.7065 57.848 29.8558 57.9013 29.9625 58.008C30.0692 58.104 30.1225 58.2427 30.1225 58.424C30.1225 58.6053 30.0692 58.7493 29.9625 58.856C29.8558 58.952 29.7065 59 29.5145 59H23.6265ZM29.978 62.056C29.818 62.0667 29.69 62.04 29.594 61.976C29.4873 61.912 29.418 61.8267 29.386 61.72C29.3433 61.624 29.3327 61.5227 29.354 61.416C29.3647 61.32 29.4073 61.2347 29.482 61.16C29.5567 61.0853 29.658 61.048 29.786 61.048C30.3727 61.016 30.8047 60.856 31.082 60.568C31.37 60.2907 31.514 59.848 31.514 59.24V51.768C31.514 51.5547 31.5673 51.3947 31.674 51.288C31.7913 51.1707 31.9567 51.112 32.17 51.112C32.3727 51.112 32.5273 51.1707 32.634 51.288C32.7513 51.3947 32.81 51.5547 32.81 51.768V59.144C32.81 59.7947 32.698 60.328 32.474 60.744C32.2607 61.1707 31.946 61.4853 31.53 61.688C31.114 61.9013 30.5967 62.024 29.978 62.056ZM32.154 49.352C31.8873 49.352 31.6793 49.2827 31.53 49.144C31.3807 48.9947 31.306 48.7973 31.306 48.552C31.306 48.296 31.3807 48.104 31.53 47.976C31.6793 47.8373 31.8873 47.768 32.154 47.768C32.4313 47.768 32.6447 47.8373 32.794 47.976C32.9433 48.104 33.018 48.296 33.018 48.552C33.018 48.7973 32.9433 48.9947 32.794 49.144C32.6447 49.2827 32.4313 49.352 32.154 49.352ZM35.8873 59.08C35.6739 59.08 35.5139 59.0213 35.4073 58.904C35.3006 58.776 35.2473 58.6 35.2473 58.376V51.832C35.2473 51.608 35.3006 51.4373 35.4073 51.32C35.5139 51.2027 35.6739 51.144 35.8873 51.144C36.0899 51.144 36.2499 51.2027 36.3673 51.32C36.4846 51.4373 36.5433 51.608 36.5433 51.832V58.376C36.5433 58.6 36.4846 58.776 36.3673 58.904C36.2606 59.0213 36.1006 59.08 35.8873 59.08ZM35.8873 49.352C35.6206 49.352 35.4126 49.2827 35.2633 49.144C35.1139 48.9947 35.0393 48.7973 35.0393 48.552C35.0393 48.296 35.1139 48.104 35.2633 47.976C35.4126 47.8373 35.6206 47.768 35.8873 47.768C36.1646 47.768 36.3726 47.8373 36.5113 47.976C36.6606 48.104 36.7353 48.296 36.7353 48.552C36.7353 48.7973 36.6606 48.9947 36.5113 49.144C36.3726 49.2827 36.1646 49.352 35.8873 49.352ZM41.334 59.144C40.566 59.144 39.9793 58.9093 39.574 58.44C39.1687 57.9707 38.966 57.2987 38.966 56.424V48.264C38.966 48.0507 39.0193 47.8907 39.126 47.784C39.2327 47.6667 39.3927 47.608 39.606 47.608C39.8087 47.608 39.9687 47.6667 40.086 47.784C40.2033 47.8907 40.262 48.0507 40.262 48.264V56.328C40.262 56.904 40.374 57.336 40.598 57.624C40.8327 57.9013 41.174 58.04 41.622 58.04C41.718 58.04 41.8033 58.0347 41.878 58.024C41.9527 58.0133 42.0273 58.008 42.102 58.008C42.2193 57.9973 42.2993 58.024 42.342 58.088C42.3953 58.152 42.422 58.28 42.422 58.472C42.422 58.664 42.3793 58.808 42.294 58.904C42.2087 59 42.07 59.064 41.878 59.096C41.7927 59.1067 41.702 59.1173 41.606 59.128C41.51 59.1387 41.4193 59.144 41.334 59.144ZM42.2124 62.056C42.0524 62.0667 41.9244 62.04 41.8284 61.976C41.7217 61.912 41.6524 61.8267 41.6204 61.72C41.5777 61.624 41.567 61.5227 41.5884 61.416C41.599 61.32 41.6417 61.2347 41.7164 61.16C41.791 61.0853 41.8924 61.048 42.0204 61.048C42.607 61.016 43.039 60.856 43.3164 60.568C43.6044 60.2907 43.7484 59.848 43.7484 59.24V51.768C43.7484 51.5547 43.8017 51.3947 43.9084 51.288C44.0257 51.1707 44.191 51.112 44.4044 51.112C44.607 51.112 44.7617 51.1707 44.8684 51.288C44.9857 51.3947 45.0444 51.5547 45.0444 51.768V59.144C45.0444 59.7947 44.9324 60.328 44.7084 60.744C44.495 61.1707 44.1804 61.4853 43.7644 61.688C43.3484 61.9013 42.831 62.024 42.2124 62.056ZM44.3884 49.352C44.1217 49.352 43.9137 49.2827 43.7644 49.144C43.615 48.9947 43.5404 48.7973 43.5404 48.552C43.5404 48.296 43.615 48.104 43.7644 47.976C43.9137 47.8373 44.1217 47.768 44.3884 47.768C44.6657 47.768 44.879 47.8373 45.0284 47.976C45.1777 48.104 45.2524 48.296 45.2524 48.552C45.2524 48.7973 45.1777 48.9947 45.0284 49.144C44.879 49.2827 44.6657 49.352 44.3884 49.352ZM49.9296 59.144C49.3963 59.144 48.9163 59.0427 48.4896 58.84C48.0736 58.6267 47.743 58.3387 47.4976 57.976C47.2523 57.6133 47.1296 57.208 47.1296 56.76C47.1296 56.184 47.2736 55.7307 47.5616 55.4C47.8603 55.0693 48.3456 54.8347 49.0176 54.696C49.7003 54.5573 50.6283 54.488 51.8016 54.488H52.5216V55.336H51.8176C50.9536 55.336 50.271 55.3787 49.7696 55.464C49.279 55.5387 48.9323 55.672 48.7296 55.864C48.5376 56.056 48.4416 56.328 48.4416 56.68C48.4416 57.1173 48.591 57.4747 48.8896 57.752C49.199 58.0293 49.615 58.168 50.1376 58.168C50.5643 58.168 50.9376 58.0667 51.2576 57.864C51.5883 57.6613 51.8443 57.384 52.0256 57.032C52.2176 56.68 52.3136 56.2747 52.3136 55.816V53.992C52.3136 53.3307 52.1803 52.856 51.9136 52.568C51.647 52.2693 51.2096 52.12 50.6016 52.12C50.2283 52.12 49.855 52.168 49.4816 52.264C49.1083 52.36 48.7136 52.5147 48.2976 52.728C48.1483 52.8027 48.0203 52.8293 47.9136 52.808C47.807 52.776 47.7216 52.7173 47.6576 52.632C47.5936 52.5467 47.5563 52.4507 47.5456 52.344C47.535 52.2267 47.5563 52.1147 47.6096 52.008C47.6736 51.9013 47.7696 51.816 47.8976 51.752C48.367 51.5173 48.831 51.3467 49.2896 51.24C49.7483 51.1333 50.1856 51.08 50.6016 51.08C51.2736 51.08 51.8283 51.192 52.2656 51.416C52.703 51.6293 53.0283 51.96 53.2416 52.408C53.455 52.8453 53.5616 53.4107 53.5616 54.104V58.44C53.5616 58.6533 53.5083 58.8187 53.4016 58.936C53.3056 59.0533 53.1616 59.112 52.9696 59.112C52.767 59.112 52.6123 59.0533 52.5056 58.936C52.399 58.8187 52.3456 58.6533 52.3456 58.44V57.192H52.4896C52.4043 57.5973 52.239 57.944 51.9936 58.232C51.759 58.52 51.4656 58.744 51.1136 58.904C50.7616 59.064 50.367 59.144 49.9296 59.144ZM56.606 59.112C56.3927 59.112 56.2327 59.0533 56.126 58.936C56.0193 58.8187 55.966 58.6533 55.966 58.44V51.768C55.966 51.5547 56.0193 51.3947 56.126 51.288C56.2327 51.1707 56.3873 51.112 56.59 51.112C56.7927 51.112 56.9473 51.1707 57.054 51.288C57.1713 51.3947 57.23 51.5547 57.23 51.768V53.144L57.054 52.952C57.278 52.3333 57.6407 51.8693 58.142 51.56C58.654 51.24 59.2407 51.08 59.902 51.08C60.5207 51.08 61.0327 51.192 61.438 51.416C61.854 51.64 62.1633 51.9813 62.366 52.44C62.5687 52.888 62.67 53.4587 62.67 54.152V58.44C62.67 58.6533 62.6113 58.8187 62.494 58.936C62.3873 59.0533 62.2327 59.112 62.03 59.112C61.8167 59.112 61.6513 59.0533 61.534 58.936C61.4273 58.8187 61.374 58.6533 61.374 58.44V54.232C61.374 53.5067 61.23 52.9787 60.942 52.648C60.6647 52.3067 60.2167 52.136 59.598 52.136C58.8833 52.136 58.3127 52.36 57.886 52.808C57.47 53.2453 57.262 53.832 57.262 54.568V58.44C57.262 58.888 57.0433 59.112 56.606 59.112ZM67.5078 59.144C66.9744 59.144 66.4944 59.0427 66.0678 58.84C65.6518 58.6267 65.3211 58.3387 65.0758 57.976C64.8304 57.6133 64.7078 57.208 64.7078 56.76C64.7078 56.184 64.8518 55.7307 65.1398 55.4C65.4384 55.0693 65.9238 54.8347 66.5958 54.696C67.2784 54.5573 68.2064 54.488 69.3798 54.488H70.0998V55.336H69.3958C68.5318 55.336 67.8491 55.3787 67.3478 55.464C66.8571 55.5387 66.5104 55.672 66.3078 55.864C66.1158 56.056 66.0198 56.328 66.0198 56.68C66.0198 57.1173 66.1691 57.4747 66.4678 57.752C66.7771 58.0293 67.1931 58.168 67.7158 58.168C68.1424 58.168 68.5158 58.0667 68.8358 57.864C69.1664 57.6613 69.4224 57.384 69.6038 57.032C69.7958 56.68 69.8918 56.2747 69.8918 55.816V53.992C69.8918 53.3307 69.7584 52.856 69.4918 52.568C69.2251 52.2693 68.7878 52.12 68.1798 52.12C67.8064 52.12 67.4331 52.168 67.0598 52.264C66.6864 52.36 66.2918 52.5147 65.8758 52.728C65.7264 52.8027 65.5984 52.8293 65.4918 52.808C65.3851 52.776 65.2998 52.7173 65.2358 52.632C65.1718 52.5467 65.1344 52.4507 65.1238 52.344C65.1131 52.2267 65.1344 52.1147 65.1878 52.008C65.2518 51.9013 65.3478 51.816 65.4758 51.752C65.9451 51.5173 66.4091 51.3467 66.8678 51.24C67.3264 51.1333 67.7638 51.08 68.1798 51.08C68.8518 51.08 69.4064 51.192 69.8438 51.416C70.2811 51.6293 70.6064 51.96 70.8198 52.408C71.0331 52.8453 71.1398 53.4107 71.1398 54.104V58.44C71.1398 58.6533 71.0864 58.8187 70.9798 58.936C70.8838 59.0533 70.7398 59.112 70.5478 59.112C70.3451 59.112 70.1904 59.0533 70.0838 58.936C69.9771 58.8187 69.9238 58.6533 69.9238 58.44V57.192H70.0678C69.9824 57.5973 69.8171 57.944 69.5718 58.232C69.3371 58.52 69.0438 58.744 68.6918 58.904C68.3398 59.064 67.9451 59.144 67.5078 59.144ZM78.4851 59.112C78.2931 59.112 78.1438 59.0587 78.0371 58.952C77.9305 58.8347 77.8771 58.6747 77.8771 58.472V48.248C77.8771 48.0347 77.9305 47.8747 78.0371 47.768C78.1438 47.6613 78.2931 47.608 78.4851 47.608C78.6558 47.608 78.7891 47.6453 78.8851 47.72C78.9918 47.784 79.0878 47.896 79.1731 48.056L83.5571 56.312H83.0771L87.4451 48.056C87.5305 47.896 87.6211 47.784 87.7171 47.72C87.8131 47.6453 87.9518 47.608 88.1331 47.608C88.3145 47.608 88.4585 47.6613 88.5651 47.768C88.6718 47.8747 88.7251 48.0347 88.7251 48.248V58.472C88.7251 58.6747 88.6718 58.8347 88.5651 58.952C88.4691 59.0587 88.3198 59.112 88.1171 59.112C87.9251 59.112 87.7758 59.0587 87.6691 58.952C87.5625 58.8347 87.5091 58.6747 87.5091 58.472V49.48H87.8931L83.8931 56.984C83.8185 57.1227 83.7385 57.224 83.6531 57.288C83.5785 57.3413 83.4665 57.368 83.3171 57.368C83.1678 57.368 83.0505 57.336 82.9651 57.272C82.8798 57.208 82.8051 57.112 82.7411 56.984L78.6931 49.464H79.0771V58.472C79.0771 58.6747 79.0238 58.8347 78.9171 58.952C78.8211 59.0587 78.6771 59.112 78.4851 59.112ZM94.8606 59.144C94.0393 59.144 93.33 58.984 92.7326 58.664C92.146 58.3333 91.6873 57.8693 91.3566 57.272C91.0366 56.6747 90.8766 55.96 90.8766 55.128C90.8766 54.3173 91.0366 53.6133 91.3566 53.016C91.6766 52.408 92.114 51.9333 92.6686 51.592C93.234 51.2507 93.8846 51.08 94.6206 51.08C95.1433 51.08 95.6126 51.1707 96.0286 51.352C96.4446 51.5227 96.7966 51.7733 97.0846 52.104C97.3833 52.4347 97.6073 52.8347 97.7566 53.304C97.9166 53.7733 97.9966 54.3013 97.9966 54.888C97.9966 55.0587 97.9486 55.1867 97.8526 55.272C97.7566 55.3467 97.618 55.384 97.4366 55.384H91.8686V54.536H97.1326L96.8766 54.744C96.8766 54.168 96.7913 53.6827 96.6206 53.288C96.45 52.8827 96.1993 52.5733 95.8686 52.36C95.5486 52.1467 95.1433 52.04 94.6526 52.04C94.1086 52.04 93.6446 52.168 93.2606 52.424C92.8873 52.6693 92.6046 53.016 92.4126 53.464C92.2206 53.9013 92.1246 54.4133 92.1246 55V55.096C92.1246 56.0773 92.3593 56.824 92.8286 57.336C93.3086 57.848 93.986 58.104 94.8606 58.104C95.2233 58.104 95.5806 58.056 95.9326 57.96C96.2953 57.864 96.6473 57.704 96.9886 57.48C97.138 57.384 97.2713 57.3413 97.3886 57.352C97.5166 57.352 97.618 57.3893 97.6926 57.464C97.7673 57.528 97.8153 57.6133 97.8366 57.72C97.8686 57.816 97.858 57.9227 97.8046 58.04C97.762 58.1573 97.6713 58.2587 97.5326 58.344C97.1806 58.6 96.7646 58.7973 96.2846 58.936C95.8046 59.0747 95.33 59.144 94.8606 59.144ZM102.832 59.144C102.139 59.144 101.531 58.9787 101.008 58.648C100.496 58.3173 100.096 57.8533 99.8083 57.256C99.5309 56.648 99.3923 55.9333 99.3923 55.112C99.3923 54.28 99.5309 53.5653 99.8083 52.968C100.096 52.36 100.496 51.896 101.008 51.576C101.531 51.2453 102.139 51.08 102.832 51.08C103.536 51.08 104.139 51.256 104.64 51.608C105.142 51.96 105.478 52.4347 105.648 53.032H105.472V48.264C105.472 48.0507 105.526 47.8907 105.632 47.784C105.75 47.6667 105.915 47.608 106.128 47.608C106.331 47.608 106.486 47.6667 106.592 47.784C106.71 47.8907 106.768 48.0507 106.768 48.264V58.44C106.768 58.6533 106.715 58.8187 106.608 58.936C106.502 59.0533 106.342 59.112 106.128 59.112C105.926 59.112 105.766 59.0533 105.648 58.936C105.542 58.8187 105.488 58.6533 105.488 58.44V56.92L105.664 57.144C105.494 57.752 105.152 58.2373 104.64 58.6C104.139 58.9627 103.536 59.144 102.832 59.144ZM103.104 58.104C103.584 58.104 104.006 57.9867 104.368 57.752C104.731 57.5173 105.008 57.176 105.2 56.728C105.403 56.28 105.504 55.7413 105.504 55.112C105.504 54.1413 105.286 53.4 104.848 52.888C104.422 52.376 103.84 52.12 103.104 52.12C102.614 52.12 102.187 52.2373 101.824 52.472C101.472 52.696 101.195 53.032 100.992 53.48C100.8 53.9173 100.704 54.4613 100.704 55.112C100.704 56.072 100.923 56.8133 101.36 57.336C101.798 57.848 102.379 58.104 103.104 58.104ZM112.432 59.144C111.675 59.144 111.019 58.9787 110.464 58.648C109.91 58.3173 109.478 57.8533 109.168 57.256C108.87 56.648 108.72 55.9333 108.72 55.112C108.72 54.4933 108.806 53.9387 108.976 53.448C109.147 52.9467 109.398 52.52 109.728 52.168C110.059 51.816 110.448 51.5493 110.896 51.368C111.355 51.176 111.867 51.08 112.432 51.08C113.19 51.08 113.846 51.2453 114.4 51.576C114.955 51.9067 115.382 52.376 115.68 52.984C115.99 53.5813 116.144 54.2907 116.144 55.112C116.144 55.7307 116.059 56.2853 115.888 56.776C115.718 57.2667 115.467 57.6933 115.136 58.056C114.806 58.408 114.411 58.68 113.952 58.872C113.504 59.0533 112.998 59.144 112.432 59.144ZM112.432 58.104C112.912 58.104 113.334 57.9867 113.696 57.752C114.059 57.5173 114.336 57.176 114.528 56.728C114.731 56.28 114.832 55.7413 114.832 55.112C114.832 54.1413 114.614 53.4 114.176 52.888C113.75 52.376 113.168 52.12 112.432 52.12C111.942 52.12 111.515 52.2373 111.152 52.472C110.8 52.696 110.523 53.032 110.32 53.48C110.128 53.9173 110.032 54.4613 110.032 55.112C110.032 56.072 110.251 56.8133 110.688 57.336C111.126 57.848 111.707 58.104 112.432 58.104ZM120.878 59.112C120.696 59.112 120.536 59.064 120.398 58.968C120.259 58.8613 120.142 58.7013 120.046 58.488L117.278 52.024C117.203 51.864 117.176 51.7147 117.198 51.576C117.219 51.4373 117.283 51.3253 117.39 51.24C117.496 51.1547 117.646 51.112 117.838 51.112C118.008 51.112 118.142 51.1493 118.238 51.224C118.334 51.2987 118.419 51.432 118.494 51.624L121.118 58.04H120.686L123.358 51.624C123.432 51.432 123.518 51.2987 123.614 51.224C123.71 51.1493 123.848 51.112 124.03 51.112C124.2 51.112 124.328 51.1547 124.414 51.24C124.51 51.3253 124.563 51.4373 124.574 51.576C124.595 51.704 124.574 51.848 124.51 52.008L121.71 58.488C121.635 58.7013 121.523 58.8613 121.374 58.968C121.235 59.064 121.07 59.112 120.878 59.112ZM126.856 59.08C126.643 59.08 126.483 59.0213 126.376 58.904C126.269 58.776 126.216 58.6 126.216 58.376V51.832C126.216 51.608 126.269 51.4373 126.376 51.32C126.483 51.2027 126.643 51.144 126.856 51.144C127.059 51.144 127.219 51.2027 127.336 51.32C127.453 51.4373 127.512 51.608 127.512 51.832V58.376C127.512 58.6 127.453 58.776 127.336 58.904C127.229 59.0213 127.069 59.08 126.856 59.08ZM126.856 49.352C126.589 49.352 126.381 49.2827 126.232 49.144C126.083 48.9947 126.008 48.7973 126.008 48.552C126.008 48.296 126.083 48.104 126.232 47.976C126.381 47.8373 126.589 47.768 126.856 47.768C127.133 47.768 127.341 47.8373 127.48 47.976C127.629 48.104 127.704 48.296 127.704 48.552C127.704 48.7973 127.629 48.9947 127.48 49.144C127.341 49.2827 127.133 49.352 126.856 49.352ZM133.231 59.144C132.452 59.144 131.78 58.9733 131.215 58.632C130.649 58.2907 130.212 57.816 129.903 57.208C129.604 56.5893 129.455 55.8747 129.455 55.064C129.455 54.4453 129.54 53.8907 129.711 53.4C129.881 52.9093 130.132 52.4933 130.463 52.152C130.793 51.8 131.188 51.5333 131.647 51.352C132.116 51.1707 132.644 51.08 133.231 51.08C133.615 51.08 134.015 51.1387 134.431 51.256C134.847 51.3733 135.225 51.576 135.567 51.864C135.673 51.9387 135.743 52.0293 135.775 52.136C135.807 52.2427 135.807 52.3493 135.775 52.456C135.743 52.552 135.689 52.6373 135.615 52.712C135.54 52.776 135.444 52.8133 135.327 52.824C135.22 52.8347 135.108 52.7973 134.991 52.712C134.713 52.4987 134.431 52.3493 134.143 52.264C133.855 52.1787 133.577 52.136 133.311 52.136C132.895 52.136 132.532 52.2053 132.223 52.344C131.913 52.472 131.652 52.6587 131.439 52.904C131.225 53.1493 131.06 53.4533 130.943 53.816C130.836 54.1787 130.783 54.6 130.783 55.08C130.783 56.008 131.001 56.744 131.439 57.288C131.876 57.8213 132.5 58.088 133.311 58.088C133.577 58.088 133.849 58.0453 134.127 57.96C134.415 57.8747 134.703 57.7253 134.991 57.512C135.108 57.4267 135.22 57.3893 135.327 57.4C135.433 57.4107 135.524 57.4533 135.599 57.528C135.673 57.592 135.721 57.6773 135.743 57.784C135.775 57.8907 135.775 57.9973 135.743 58.104C135.711 58.2 135.641 58.2853 135.535 58.36C135.193 58.6373 134.82 58.84 134.415 58.968C134.009 59.0853 133.615 59.144 133.231 59.144ZM133.695 50.104C133.62 50.2107 133.529 50.2747 133.423 50.296C133.316 50.3067 133.215 50.2907 133.119 50.248C133.023 50.1947 132.953 50.12 132.911 50.024C132.868 49.928 132.879 49.816 132.943 49.688L134.287 47.08C134.361 46.9307 134.457 46.8347 134.575 46.792C134.692 46.7493 134.809 46.744 134.927 46.776C135.055 46.7973 135.161 46.8507 135.247 46.936C135.332 47.0213 135.38 47.1227 135.391 47.24C135.412 47.3573 135.38 47.48 135.295 47.608L133.695 50.104Z" fill="#252525"/>
</svg>
