<svg width="174" height="65" viewBox="0 0 174 65" fill="none" xmlns="http://www.w3.org/2000/svg">
<path d="M21.696 12.344V12.984C20.9707 13.0267 20.4267 13.1547 20.064 13.368C19.7013 13.5813 19.456 13.9333 19.328 14.424C19.2213 14.8933 19.168 15.5653 19.168 16.44V35.128C18.9973 35.128 18.8267 35.128 18.656 35.128C18.4853 35.128 18.304 35.128 18.112 35.128L4.544 15.416V30.776C4.544 31.672 4.608 32.376 4.736 32.888C4.864 33.3787 5.14133 33.7307 5.568 33.944C5.99467 34.1573 6.64533 34.296 7.52 34.36V35C7.11467 34.9573 6.592 34.936 5.952 34.936C5.33333 34.9147 4.74667 34.904 4.192 34.904C3.65867 34.904 3.12533 34.9147 2.592 34.936C2.05867 34.936 1.62133 34.9573 1.28 35V34.36C1.984 34.296 2.51733 34.168 2.88 33.976C3.24267 33.7627 3.488 33.4107 3.616 32.92C3.744 32.4293 3.808 31.7573 3.808 30.904V15.736C3.808 14.9467 3.744 14.3707 3.616 14.008C3.488 13.624 3.24267 13.368 2.88 13.24C2.51733 13.0907 1.984 13.0053 1.28 12.984V12.344C1.62133 12.3653 2.05867 12.3867 2.592 12.408C3.12533 12.4293 3.65867 12.44 4.192 12.44C4.66133 12.44 5.12 12.4293 5.568 12.408C6.016 12.3867 6.41067 12.3653 6.752 12.344L18.432 29.048V16.568C18.432 15.6507 18.3573 14.9467 18.208 14.456C18.08 13.9653 17.8027 13.6133 17.376 13.4C16.9493 13.1653 16.3093 13.0267 15.456 12.984V12.344C15.84 12.3653 16.352 12.3867 16.992 12.408C17.632 12.4293 18.2293 12.44 18.784 12.44C19.3173 12.44 19.8507 12.4293 20.384 12.408C20.9173 12.3867 21.3547 12.3653 21.696 12.344ZM27.4385 35.224C26.5425 35.224 25.7745 35.0533 25.1345 34.712C24.4945 34.3707 24.0145 33.9013 23.6945 33.304C23.3745 32.7067 23.2145 32.024 23.2145 31.256C23.2145 30.3173 23.4278 29.56 23.8545 28.984C24.2812 28.3867 24.8252 27.9067 25.4865 27.544C26.1692 27.1813 26.8838 26.8827 27.6305 26.648C28.3985 26.392 29.1132 26.1573 29.7745 25.944C30.4572 25.7093 31.0118 25.4427 31.4385 25.144C31.8865 24.8453 32.1105 24.4507 32.1105 23.96V21.784C32.1105 21.016 31.9825 20.408 31.7265 19.96C31.4918 19.4907 31.1612 19.16 30.7345 18.968C30.3292 18.776 29.8385 18.68 29.2625 18.68C28.7718 18.68 28.2492 18.7547 27.6945 18.904C27.1398 19.032 26.7025 19.2987 26.3825 19.704C26.8518 19.832 27.2358 20.088 27.5345 20.472C27.8545 20.8347 28.0145 21.2933 28.0145 21.848C28.0145 22.4453 27.8118 22.9147 27.4065 23.256C27.0225 23.5973 26.5318 23.768 25.9345 23.768C25.2732 23.768 24.7825 23.5653 24.4625 23.16C24.1425 22.7333 23.9825 22.2427 23.9825 21.688C23.9825 21.112 24.1212 20.6427 24.3985 20.28C24.6972 19.9173 25.0812 19.576 25.5505 19.256C26.0625 18.9147 26.7132 18.6267 27.5025 18.392C28.3132 18.1573 29.2092 18.04 30.1905 18.04C31.1078 18.04 31.8972 18.1467 32.5585 18.36C33.2412 18.552 33.8065 18.872 34.2545 19.32C34.7878 19.8107 35.1398 20.4293 35.3105 21.176C35.4812 21.9013 35.5665 22.7867 35.5665 23.832V32.664C35.5665 33.1973 35.6305 33.5813 35.7585 33.816C35.9078 34.0293 36.1425 34.136 36.4625 34.136C36.6758 34.136 36.8785 34.0827 37.0705 33.976C37.2838 33.8693 37.5292 33.7093 37.8065 33.496L38.1265 34.04C37.6785 34.4027 37.2198 34.6907 36.7505 34.904C36.3025 35.1173 35.7265 35.224 35.0225 35.224C34.3398 35.224 33.7852 35.1173 33.3585 34.904C32.9318 34.6907 32.6118 34.3813 32.3985 33.976C32.2065 33.5707 32.1105 33.0693 32.1105 32.472C31.5558 33.368 30.8945 34.0507 30.1265 34.52C29.3585 34.9893 28.4625 35.224 27.4385 35.224ZM28.9745 33.688C29.5718 33.688 30.1265 33.5173 30.6385 33.176C31.1718 32.8347 31.6625 32.3227 32.1105 31.64V25.272C31.8758 25.6133 31.5345 25.912 31.0865 26.168C30.6385 26.4027 30.1585 26.648 29.6465 26.904C29.1345 27.16 28.6438 27.4587 28.1745 27.8C27.7265 28.12 27.3532 28.536 27.0545 29.048C26.7558 29.56 26.6065 30.2107 26.6065 31C26.6065 31.832 26.8198 32.4933 27.2465 32.984C27.6732 33.4533 28.2492 33.688 28.9745 33.688ZM42.9227 10.424C43.5841 10.424 44.1388 10.6373 44.5868 11.064C45.0348 11.4693 45.2588 11.9813 45.2588 12.6C45.2588 13.2187 45.0348 13.7413 44.5868 14.168C44.1388 14.5733 43.5841 14.776 42.9227 14.776C42.2614 14.776 41.7068 14.5733 41.2588 14.168C40.8108 13.7413 40.5868 13.2187 40.5868 12.6C40.5868 11.9813 40.8108 11.4693 41.2588 11.064C41.7068 10.6373 42.2614 10.424 42.9227 10.424ZM44.8428 18.136V32.024C44.8428 32.92 45.0134 33.528 45.3548 33.848C45.7174 34.168 46.3148 34.328 47.1468 34.328V35C46.7841 34.9787 46.2188 34.9573 45.4508 34.936C44.7041 34.8933 43.9361 34.872 43.1468 34.872C42.4001 34.872 41.6321 34.8933 40.8428 34.936C40.0534 34.9573 39.4668 34.9787 39.0828 35V34.328C39.9147 34.328 40.5014 34.168 40.8428 33.848C41.2054 33.528 41.3868 32.92 41.3868 32.024V21.976C41.3868 21.016 41.2268 20.312 40.9068 19.864C40.5868 19.3947 39.9788 19.16 39.0828 19.16V18.488C39.7654 18.552 40.4268 18.584 41.0668 18.584C41.7921 18.584 42.4641 18.552 43.0828 18.488C43.7228 18.4027 44.3094 18.2853 44.8428 18.136ZM54.2445 9.912V32.024C54.2445 32.92 54.4152 33.528 54.7565 33.848C55.1192 34.168 55.7165 34.328 56.5485 34.328V35C56.1858 34.9787 55.6205 34.9573 54.8525 34.936C54.0845 34.8933 53.3165 34.872 52.5485 34.872C51.7805 34.872 51.0018 34.8933 50.2125 34.936C49.4445 34.9573 48.8685 34.9787 48.4845 35V34.328C49.3165 34.328 49.9032 34.168 50.2445 33.848C50.6072 33.528 50.7885 32.92 50.7885 32.024V13.752C50.7885 12.792 50.6285 12.088 50.3085 11.64C49.9885 11.1707 49.3805 10.936 48.4845 10.936V10.264C49.1672 10.328 49.8285 10.36 50.4685 10.36C51.1725 10.36 51.8445 10.328 52.4845 10.264C53.1245 10.1787 53.7112 10.0613 54.2445 9.912ZM67.5868 12.344C71.5334 12.344 74.4668 13.304 76.3868 15.224C78.3068 17.1227 79.2668 19.8533 79.2668 23.416C79.2668 25.7413 78.7974 27.7787 77.8588 29.528C76.9201 31.256 75.5548 32.6 73.7628 33.56C71.9921 34.52 69.8374 35 67.2988 35C66.9788 35 66.5414 34.9893 65.9868 34.968C65.4534 34.9467 64.8988 34.936 64.3228 34.936C63.7468 34.9147 63.2241 34.904 62.7548 34.904C61.9441 34.904 61.1441 34.9147 60.3548 34.936C59.5868 34.936 58.9574 34.9573 58.4668 35V34.36C59.1921 34.3173 59.7361 34.232 60.0988 34.104C60.4614 33.976 60.6961 33.72 60.8028 33.336C60.9308 32.952 60.9948 32.376 60.9948 31.608V15.736C60.9948 14.9467 60.9308 14.3707 60.8028 14.008C60.6961 13.624 60.4508 13.368 60.0668 13.24C59.7041 13.0907 59.1708 13.0053 58.4668 12.984V12.344C58.9574 12.3653 59.5868 12.3973 60.3548 12.44C61.1441 12.4613 61.9228 12.4613 62.6908 12.44C63.4588 12.4187 64.3121 12.3973 65.2508 12.376C66.2108 12.3547 66.9894 12.344 67.5868 12.344ZM67.0428 12.92C66.0614 12.92 65.4214 13.1013 65.1228 13.464C64.8241 13.8267 64.6748 14.5627 64.6748 15.672V31.672C64.6748 32.7813 64.8241 33.5173 65.1228 33.88C65.4428 34.2427 66.0934 34.424 67.0748 34.424C69.2294 34.424 70.9041 34.008 72.0988 33.176C73.2934 32.3227 74.1361 31.0853 74.6268 29.464C75.1174 27.8427 75.3628 25.8693 75.3628 23.544C75.3628 21.1547 75.0961 19.1813 74.5628 17.624C74.0294 16.0453 73.1548 14.872 71.9388 14.104C70.7441 13.3147 69.1121 12.92 67.0428 12.92ZM89.7375 18.04C91.6148 18.04 93.0868 18.6053 94.1535 19.736C95.2202 20.8667 95.7535 22.6587 95.7535 25.112H84.7135L84.6495 24.504H92.3615C92.3828 23.4587 92.2975 22.4987 92.1055 21.624C91.9135 20.728 91.6148 20.0133 91.2095 19.48C90.8042 18.9467 90.2708 18.68 89.6095 18.68C88.6922 18.68 87.8922 19.1707 87.2095 20.152C86.5482 21.112 86.1428 22.6587 85.9935 24.792L86.0895 24.952C86.0682 25.2507 86.0468 25.5813 86.0255 25.944C86.0042 26.2853 85.9935 26.6267 85.9935 26.968C85.9935 28.44 86.2175 29.6773 86.6655 30.68C87.1135 31.6827 87.7002 32.44 88.4255 32.952C89.1508 33.4427 89.8868 33.688 90.6335 33.688C91.2095 33.688 91.7642 33.6027 92.2975 33.432C92.8522 33.24 93.3748 32.9307 93.8655 32.504C94.3562 32.056 94.7935 31.448 95.1775 30.68L95.8175 30.936C95.5615 31.6613 95.1668 32.376 94.6335 33.08C94.1002 33.784 93.4175 34.36 92.5855 34.808C91.7535 35.2347 90.7828 35.448 89.6735 35.448C88.1802 35.448 86.8788 35.1173 85.7695 34.456C84.6602 33.7733 83.8068 32.8027 83.2095 31.544C82.6122 30.2853 82.3135 28.792 82.3135 27.064C82.3135 25.1653 82.6228 23.544 83.2415 22.2C83.8602 20.856 84.7242 19.832 85.8335 19.128C86.9642 18.4027 88.2655 18.04 89.7375 18.04ZM103.91 18.04C104.763 18.04 105.499 18.1787 106.118 18.456C106.758 18.712 107.216 18.9467 107.494 19.16C108.198 19.7147 108.635 19.352 108.806 18.072H109.51C109.467 18.6693 109.435 19.3947 109.414 20.248C109.392 21.08 109.382 22.1893 109.382 23.576H108.678C108.55 22.7867 108.326 22.0187 108.006 21.272C107.707 20.5253 107.259 19.9067 106.662 19.416C106.086 18.9253 105.328 18.68 104.39 18.68C103.686 18.68 103.099 18.8827 102.63 19.288C102.16 19.672 101.926 20.248 101.926 21.016C101.926 21.656 102.118 22.2107 102.502 22.68C102.886 23.1493 103.376 23.5867 103.974 23.992C104.592 24.3973 105.254 24.8347 105.958 25.304C106.747 25.8373 107.451 26.3707 108.07 26.904C108.71 27.416 109.211 27.992 109.574 28.632C109.958 29.272 110.15 30.0187 110.15 30.872C110.15 31.8533 109.883 32.6853 109.35 33.368C108.838 34.0507 108.155 34.5733 107.302 34.936C106.448 35.2773 105.51 35.448 104.486 35.448C103.974 35.448 103.494 35.3947 103.046 35.288C102.598 35.2027 102.182 35.0853 101.798 34.936C101.563 34.808 101.328 34.68 101.094 34.552C100.88 34.4027 100.667 34.264 100.454 34.136C100.24 33.9867 100.048 34.008 99.8778 34.2C99.7071 34.392 99.5791 34.7333 99.4938 35.224H98.7898C98.8324 34.5413 98.8644 33.7093 98.8858 32.728C98.9071 31.7467 98.9178 30.4453 98.9178 28.824H99.6218C99.7711 29.9973 99.9951 31.032 100.294 31.928C100.592 32.824 101.03 33.528 101.606 34.04C102.203 34.5307 103.014 34.776 104.038 34.776C104.443 34.776 104.848 34.6907 105.254 34.52C105.659 34.328 105.99 34.0293 106.246 33.624C106.523 33.2187 106.662 32.6747 106.662 31.992C106.662 31.0533 106.331 30.2853 105.67 29.688C105.03 29.0693 104.198 28.4187 103.174 27.736C102.448 27.224 101.755 26.7227 101.094 26.232C100.454 25.72 99.9311 25.1547 99.5258 24.536C99.1204 23.896 98.9178 23.1387 98.9178 22.264C98.9178 21.304 99.1418 20.5147 99.5898 19.896C100.059 19.2773 100.678 18.8187 101.446 18.52C102.214 18.2 103.035 18.04 103.91 18.04ZM116.266 10.424C116.928 10.424 117.483 10.6373 117.931 11.064C118.379 11.4693 118.603 11.9813 118.603 12.6C118.603 13.2187 118.379 13.7413 117.931 14.168C117.483 14.5733 116.928 14.776 116.266 14.776C115.605 14.776 115.051 14.5733 114.603 14.168C114.155 13.7413 113.931 13.2187 113.931 12.6C113.931 11.9813 114.155 11.4693 114.603 11.064C115.051 10.6373 115.605 10.424 116.266 10.424ZM118.187 18.136V32.024C118.187 32.92 118.357 33.528 118.699 33.848C119.061 34.168 119.659 34.328 120.491 34.328V35C120.128 34.9787 119.563 34.9573 118.795 34.936C118.048 34.8933 117.28 34.872 116.491 34.872C115.744 34.872 114.976 34.8933 114.187 34.936C113.397 34.9573 112.811 34.9787 112.427 35V34.328C113.258 34.328 113.845 34.168 114.187 33.848C114.549 33.528 114.731 32.92 114.731 32.024V21.976C114.731 21.016 114.571 20.312 114.251 19.864C113.931 19.3947 113.323 19.16 112.427 19.16V18.488C113.109 18.552 113.771 18.584 114.411 18.584C115.136 18.584 115.808 18.552 116.427 18.488C117.067 18.4027 117.653 18.2853 118.187 18.136ZM128.036 41.016C126.842 41.016 125.732 40.8987 124.708 40.664C123.706 40.4293 122.895 40.0667 122.276 39.576C121.679 39.1067 121.38 38.4987 121.38 37.752C121.38 37.048 121.679 36.4293 122.276 35.896C122.874 35.3627 123.716 34.9573 124.804 34.68L125.028 35.192C124.58 35.384 124.228 35.6933 123.972 36.12C123.738 36.5467 123.62 37.016 123.62 37.528C123.62 38.4667 124.058 39.192 124.932 39.704C125.807 40.216 126.959 40.472 128.388 40.472C129.348 40.472 130.255 40.344 131.108 40.088C131.983 39.8533 132.687 39.4587 133.22 38.904C133.775 38.3493 134.052 37.6347 134.052 36.76C134.052 36.0773 133.807 35.5013 133.316 35.032C132.826 34.584 131.855 34.36 130.404 34.36H128.164C127.418 34.36 126.724 34.296 126.084 34.168C125.444 34.04 124.922 33.7947 124.516 33.432C124.132 33.048 123.94 32.5147 123.94 31.832C123.94 31.064 124.26 30.3387 124.9 29.656C125.54 28.9733 126.618 28.3013 128.132 27.64L128.516 27.928C127.898 28.2693 127.343 28.6213 126.852 28.984C126.383 29.3253 126.148 29.752 126.148 30.264C126.148 30.9467 126.639 31.288 127.62 31.288H131.428C132.431 31.288 133.338 31.4267 134.148 31.704C134.959 31.96 135.61 32.376 136.1 32.952C136.591 33.528 136.836 34.2853 136.836 35.224C136.836 36.2267 136.506 37.1653 135.844 38.04C135.204 38.936 134.234 39.6507 132.932 40.184C131.631 40.7387 129.999 41.016 128.036 41.016ZM128.228 28.184C127.14 28.184 126.148 28.0133 125.252 27.672C124.356 27.3093 123.652 26.7547 123.14 26.008C122.628 25.2613 122.372 24.3013 122.372 23.128C122.372 21.9547 122.628 20.9947 123.14 20.248C123.652 19.48 124.356 18.9253 125.252 18.584C126.148 18.2213 127.14 18.04 128.228 18.04C129.359 18.04 130.362 18.2213 131.236 18.584C132.111 18.9253 132.804 19.48 133.316 20.248C133.828 20.9947 134.084 21.9547 134.084 23.128C134.084 24.3013 133.828 25.2613 133.316 26.008C132.804 26.7547 132.111 27.3093 131.236 27.672C130.362 28.0133 129.359 28.184 128.228 28.184ZM128.228 27.608C128.975 27.608 129.551 27.288 129.956 26.648C130.362 26.008 130.564 24.8347 130.564 23.128C130.564 21.4213 130.362 20.248 129.956 19.608C129.551 18.9467 128.975 18.616 128.228 18.616C127.524 18.616 126.959 18.9467 126.532 19.608C126.106 20.248 125.892 21.4213 125.892 23.128C125.892 24.8347 126.106 26.008 126.532 26.648C126.959 27.288 127.524 27.608 128.228 27.608ZM132.964 20.728L132.388 20.504C132.687 19.7573 133.199 19.1067 133.924 18.552C134.65 17.9973 135.407 17.72 136.196 17.72C136.794 17.72 137.263 17.8907 137.604 18.232C137.967 18.552 138.148 19.0107 138.148 19.608C138.148 20.2693 137.967 20.7387 137.604 21.016C137.263 21.2933 136.9 21.432 136.516 21.432C136.175 21.432 135.855 21.3147 135.556 21.08C135.279 20.8453 135.119 20.4827 135.076 19.992C135.034 19.48 135.194 18.8293 135.556 18.04L135.908 18.168C135.055 18.5093 134.426 18.872 134.02 19.256C133.636 19.6187 133.284 20.1093 132.964 20.728ZM150.313 18.04C151.166 18.04 151.859 18.1573 152.393 18.392C152.947 18.6053 153.406 18.904 153.769 19.288C154.153 19.6933 154.419 20.216 154.569 20.856C154.739 21.496 154.825 22.36 154.825 23.448V32.024C154.825 32.92 154.995 33.528 155.337 33.848C155.699 34.168 156.297 34.328 157.128 34.328V35C156.766 34.9787 156.201 34.9573 155.433 34.936C154.665 34.8933 153.907 34.872 153.161 34.872C152.435 34.872 151.71 34.8933 150.985 34.936C150.281 34.9573 149.747 34.9787 149.385 35V34.328C150.11 34.328 150.622 34.168 150.921 33.848C151.219 33.528 151.369 32.92 151.369 32.024V22.552C151.369 21.9333 151.315 21.3787 151.209 20.888C151.102 20.376 150.878 19.9707 150.537 19.672C150.195 19.352 149.683 19.192 149.001 19.192C148.211 19.192 147.507 19.416 146.889 19.864C146.291 20.312 145.811 20.9307 145.449 21.72C145.107 22.488 144.937 23.352 144.937 24.312V32.024C144.937 32.92 145.086 33.528 145.385 33.848C145.705 34.168 146.217 34.328 146.921 34.328V35C146.579 34.9787 146.057 34.9573 145.353 34.936C144.67 34.8933 143.955 34.872 143.209 34.872C142.483 34.872 141.726 34.8933 140.937 34.936C140.147 34.9573 139.561 34.9787 139.177 35V34.328C140.008 34.328 140.595 34.168 140.937 33.848C141.299 33.528 141.481 32.92 141.481 32.024V21.976C141.481 21.016 141.321 20.312 141.001 19.864C140.681 19.3947 140.073 19.16 139.177 19.16V18.488C139.859 18.552 140.521 18.584 141.161 18.584C141.886 18.584 142.558 18.552 143.177 18.488C143.817 18.4027 144.403 18.2853 144.937 18.136V21.624C145.491 20.3013 146.249 19.3733 147.209 18.84C148.19 18.3067 149.225 18.04 150.313 18.04Z" fill="black"/>
<path d="M4.976 59.128C4.25067 59.128 3.632 58.9413 3.12 58.568C2.608 58.1947 2.26133 57.6933 2.08 57.064L2.256 56.968V58.6C2.256 58.76 2.21333 58.8827 2.128 58.968C2.04267 59.0533 1.92533 59.096 1.776 59.096C1.616 59.096 1.49333 59.0533 1.408 58.968C1.32267 58.8827 1.28 58.76 1.28 58.6V48.12C1.28 47.9493 1.32267 47.8267 1.408 47.752C1.49333 47.6667 1.616 47.624 1.776 47.624C1.92533 47.624 2.04267 47.6667 2.128 47.752C2.21333 47.8267 2.256 47.9493 2.256 48.12V53.16H2.08C2.26133 52.5307 2.608 52.0293 3.12 51.656C3.632 51.2827 4.25067 51.096 4.976 51.096C5.68 51.096 6.288 51.2613 6.8 51.592C7.312 51.9227 7.70667 52.3867 7.984 52.984C8.272 53.5813 8.416 54.2907 8.416 55.112C8.416 55.9333 8.272 56.648 7.984 57.256C7.70667 57.8533 7.30667 58.3173 6.784 58.648C6.272 58.968 5.66933 59.128 4.976 59.128ZM4.832 58.312C5.35467 58.312 5.808 58.1893 6.192 57.944C6.58667 57.688 6.89067 57.32 7.104 56.84C7.31733 56.36 7.424 55.784 7.424 55.112C7.424 54.0987 7.18933 53.3147 6.72 52.76C6.25067 52.2053 5.62133 51.928 4.832 51.928C4.30933 51.928 3.85067 52.056 3.456 52.312C3.072 52.5573 2.77333 52.92 2.56 53.4C2.34667 53.8693 2.24 54.44 2.24 55.112C2.24 56.136 2.47467 56.9253 2.944 57.48C3.41333 58.0347 4.04267 58.312 4.832 58.312ZM12.0214 61.976C11.8934 61.976 11.792 61.9387 11.7174 61.864C11.6427 61.8 11.6 61.7093 11.5894 61.592C11.5894 61.4853 11.6107 61.3733 11.6534 61.256L12.7574 58.744V59.192L9.62138 51.864C9.56804 51.736 9.54671 51.6187 9.55738 51.512C9.57871 51.3947 9.62671 51.304 9.70138 51.24C9.78671 51.1653 9.90404 51.128 10.0534 51.128C10.192 51.128 10.2934 51.16 10.3574 51.224C10.432 51.288 10.496 51.3893 10.5494 51.528L13.3974 58.424H12.9974L15.8454 51.528C15.9094 51.3787 15.9787 51.2773 16.0534 51.224C16.128 51.16 16.2347 51.128 16.3734 51.128C16.512 51.128 16.6134 51.1653 16.6774 51.24C16.752 51.304 16.7947 51.3893 16.8054 51.496C16.816 51.6027 16.7947 51.72 16.7414 51.848L12.5654 61.592C12.5014 61.7413 12.4267 61.8427 12.3414 61.896C12.2667 61.9493 12.16 61.976 12.0214 61.976ZM23.2493 59C23.0999 59 22.9773 58.9573 22.8813 58.872C22.7959 58.776 22.7533 58.648 22.7533 58.488V48.152C22.7533 47.9813 22.7959 47.8533 22.8813 47.768C22.9666 47.6827 23.0839 47.64 23.2333 47.64C23.3933 47.64 23.5159 47.6827 23.6013 47.768C23.6866 47.8533 23.7293 47.9813 23.7293 48.152V58.12H29.2333C29.3933 58.12 29.5106 58.1573 29.5853 58.232C29.6706 58.3067 29.7133 58.4133 29.7133 58.552C29.7133 58.7013 29.6706 58.8133 29.5853 58.888C29.5106 58.9627 29.3933 59 29.2333 59H23.2493ZM29.4117 62.056C29.2837 62.0667 29.1824 62.0453 29.1077 61.992C29.0331 61.9387 28.9797 61.8693 28.9477 61.784C28.9157 61.7093 28.9051 61.6293 28.9157 61.544C28.9264 61.4693 28.9637 61.4 29.0277 61.336C29.0917 61.2827 29.1824 61.256 29.2997 61.256C29.9397 61.2347 30.4144 61.0693 30.7238 60.76C31.0331 60.4613 31.1878 59.976 31.1878 59.304V51.64C31.1878 51.4693 31.2304 51.3413 31.3158 51.256C31.4011 51.1707 31.5184 51.128 31.6678 51.128C31.8278 51.128 31.9504 51.1707 32.0358 51.256C32.1211 51.3413 32.1638 51.4693 32.1638 51.64V59.24C32.1638 59.88 32.0518 60.4027 31.8278 60.808C31.6144 61.224 31.3051 61.5333 30.8997 61.736C30.4944 61.9387 29.9984 62.0453 29.4117 62.056ZM31.6678 49.24C31.4544 49.24 31.2838 49.1813 31.1558 49.064C31.0278 48.9467 30.9638 48.7813 30.9638 48.568C30.9638 48.3547 31.0278 48.1947 31.1558 48.088C31.2838 47.9707 31.4544 47.912 31.6678 47.912C31.8918 47.912 32.0624 47.9707 32.1798 48.088C32.3078 48.1947 32.3718 48.3547 32.3718 48.568C32.3718 48.7813 32.3078 48.9467 32.1798 49.064C32.0624 49.1813 31.8918 49.24 31.6678 49.24ZM35.2135 59.064C35.0535 59.064 34.9308 59.016 34.8455 58.92C34.7602 58.824 34.7175 58.696 34.7175 58.536V51.688C34.7175 51.5173 34.7602 51.3893 34.8455 51.304C34.9308 51.2187 35.0535 51.176 35.2135 51.176C35.3628 51.176 35.4802 51.2187 35.5655 51.304C35.6508 51.3893 35.6935 51.5173 35.6935 51.688V58.536C35.6935 58.696 35.6508 58.824 35.5655 58.92C35.4908 59.016 35.3735 59.064 35.2135 59.064ZM35.2135 49.24C34.9895 49.24 34.8135 49.1813 34.6855 49.064C34.5682 48.9467 34.5095 48.7813 34.5095 48.568C34.5095 48.3547 34.5682 48.1947 34.6855 48.088C34.8135 47.9707 34.9895 47.912 35.2135 47.912C35.4375 47.912 35.6082 47.9707 35.7255 48.088C35.8535 48.1947 35.9175 48.3547 35.9175 48.568C35.9175 48.7813 35.8535 48.9467 35.7255 49.064C35.6082 49.1813 35.4375 49.24 35.2135 49.24ZM40.5044 59.128C39.7897 59.128 39.235 58.904 38.8404 58.456C38.4564 58.008 38.2644 57.3733 38.2644 56.552V48.12C38.2644 47.9493 38.307 47.8267 38.3924 47.752C38.4777 47.6667 38.6004 47.624 38.7604 47.624C38.9097 47.624 39.027 47.6667 39.1124 47.752C39.1977 47.8267 39.2404 47.9493 39.2404 48.12V56.44C39.2404 57.0587 39.363 57.5227 39.6084 57.832C39.8537 58.1307 40.211 58.28 40.6804 58.28C40.787 58.28 40.8777 58.2747 40.9524 58.264C41.027 58.2533 41.1017 58.248 41.1764 58.248C41.2724 58.2373 41.3417 58.2587 41.3844 58.312C41.4377 58.3547 41.4644 58.4507 41.4644 58.6C41.4644 58.7493 41.427 58.8613 41.3524 58.936C41.2777 59.0107 41.155 59.064 40.9844 59.096C40.9097 59.1067 40.8297 59.112 40.7444 59.112C40.6697 59.1227 40.5897 59.128 40.5044 59.128ZM41.1149 62.056C40.9869 62.0667 40.8855 62.0453 40.8109 61.992C40.7362 61.9387 40.6829 61.8693 40.6509 61.784C40.6189 61.7093 40.6082 61.6293 40.6189 61.544C40.6295 61.4693 40.6669 61.4 40.7309 61.336C40.7949 61.2827 40.8855 61.256 41.0029 61.256C41.6429 61.2347 42.1175 61.0693 42.4269 60.76C42.7362 60.4613 42.8909 59.976 42.8909 59.304V51.64C42.8909 51.4693 42.9335 51.3413 43.0189 51.256C43.1042 51.1707 43.2215 51.128 43.3709 51.128C43.5309 51.128 43.6535 51.1707 43.7389 51.256C43.8242 51.3413 43.8669 51.4693 43.8669 51.64V59.24C43.8669 59.88 43.7549 60.4027 43.5309 60.808C43.3175 61.224 43.0082 61.5333 42.6029 61.736C42.1975 61.9387 41.7015 62.0453 41.1149 62.056ZM43.3709 49.24C43.1575 49.24 42.9869 49.1813 42.8589 49.064C42.7309 48.9467 42.6669 48.7813 42.6669 48.568C42.6669 48.3547 42.7309 48.1947 42.8589 48.088C42.9869 47.9707 43.1575 47.912 43.3709 47.912C43.5949 47.912 43.7655 47.9707 43.8829 48.088C44.0109 48.1947 44.0749 48.3547 44.0749 48.568C44.0749 48.7813 44.0109 48.9467 43.8829 49.064C43.7655 49.1813 43.5949 49.24 43.3709 49.24ZM48.8206 59.128C48.298 59.128 47.8286 59.0267 47.4126 58.824C47.0073 58.6213 46.682 58.344 46.4366 57.992C46.202 57.64 46.0846 57.2453 46.0846 56.808C46.0846 56.232 46.2286 55.7787 46.5166 55.448C46.8046 55.1173 47.29 54.888 47.9726 54.76C48.6553 54.6213 49.594 54.552 50.7886 54.552H51.4766V55.272H50.8046C49.8446 55.272 49.0926 55.3147 48.5486 55.4C48.0153 55.4747 47.642 55.6187 47.4286 55.832C47.2153 56.0453 47.1086 56.344 47.1086 56.728C47.1086 57.208 47.274 57.5973 47.6046 57.896C47.9353 58.1947 48.3833 58.344 48.9486 58.344C49.4073 58.344 49.8073 58.2373 50.1486 58.024C50.5006 57.8 50.778 57.496 50.9806 57.112C51.1833 56.728 51.2846 56.2907 51.2846 55.8V53.976C51.2846 53.2613 51.1406 52.744 50.8526 52.424C50.5646 52.0933 50.106 51.928 49.4766 51.928C49.0713 51.928 48.6766 51.9813 48.2926 52.088C47.9193 52.1947 47.5193 52.3653 47.0926 52.6C46.9753 52.664 46.8686 52.6853 46.7726 52.664C46.6873 52.6427 46.618 52.6 46.5646 52.536C46.522 52.472 46.49 52.3973 46.4686 52.312C46.458 52.216 46.474 52.1253 46.5166 52.04C46.5593 51.9547 46.634 51.8853 46.7406 51.832C47.1886 51.5867 47.642 51.4053 48.1006 51.288C48.57 51.16 49.0233 51.096 49.4606 51.096C50.09 51.096 50.6073 51.2027 51.0126 51.416C51.4286 51.6293 51.7326 51.9493 51.9246 52.376C52.1273 52.8027 52.2286 53.352 52.2286 54.024V58.6C52.2286 58.76 52.1913 58.8827 52.1166 58.968C52.042 59.0533 51.93 59.096 51.7806 59.096C51.6313 59.096 51.514 59.0533 51.4286 58.968C51.3433 58.8827 51.3006 58.76 51.3006 58.6V57.128H51.4606C51.3646 57.544 51.194 57.9013 50.9486 58.2C50.7033 58.4987 50.3993 58.728 50.0366 58.888C49.674 59.048 49.2686 59.128 48.8206 59.128ZM55.276 59.096C55.116 59.096 54.9933 59.0533 54.908 58.968C54.8227 58.8827 54.78 58.76 54.78 58.6V51.64C54.78 51.4693 54.8227 51.3413 54.908 51.256C54.9933 51.1707 55.116 51.128 55.276 51.128C55.4253 51.128 55.5373 51.1707 55.612 51.256C55.6973 51.3413 55.74 51.4693 55.74 51.64V53.144L55.564 53.048C55.7773 52.408 56.14 51.9227 56.652 51.592C57.1747 51.2613 57.772 51.096 58.444 51.096C59.0627 51.096 59.5747 51.208 59.98 51.432C60.396 51.6453 60.7053 51.976 60.908 52.424C61.1107 52.872 61.212 53.432 61.212 54.104V58.6C61.212 58.76 61.1693 58.8827 61.084 58.968C60.9987 59.0533 60.8813 59.096 60.732 59.096C60.572 59.096 60.4493 59.0533 60.364 58.968C60.2787 58.8827 60.236 58.76 60.236 58.6V54.184C60.236 53.4053 60.0813 52.84 59.772 52.488C59.4627 52.1253 58.972 51.944 58.3 51.944C57.532 51.944 56.9133 52.184 56.444 52.664C55.9853 53.1333 55.756 53.768 55.756 54.568V58.6C55.756 58.9307 55.596 59.096 55.276 59.096ZM66.1331 59.128C65.6105 59.128 65.1411 59.0267 64.7251 58.824C64.3198 58.6213 63.9945 58.344 63.7491 57.992C63.5145 57.64 63.3971 57.2453 63.3971 56.808C63.3971 56.232 63.5411 55.7787 63.8291 55.448C64.1171 55.1173 64.6025 54.888 65.2851 54.76C65.9678 54.6213 66.9065 54.552 68.1011 54.552H68.7891V55.272H68.1171C67.1571 55.272 66.4051 55.3147 65.8611 55.4C65.3278 55.4747 64.9545 55.6187 64.7411 55.832C64.5278 56.0453 64.4211 56.344 64.4211 56.728C64.4211 57.208 64.5865 57.5973 64.9171 57.896C65.2478 58.1947 65.6958 58.344 66.2611 58.344C66.7198 58.344 67.1198 58.2373 67.4611 58.024C67.8131 57.8 68.0905 57.496 68.2931 57.112C68.4958 56.728 68.5971 56.2907 68.5971 55.8V53.976C68.5971 53.2613 68.4531 52.744 68.1651 52.424C67.8771 52.0933 67.4185 51.928 66.7891 51.928C66.3838 51.928 65.9891 51.9813 65.6051 52.088C65.2318 52.1947 64.8318 52.3653 64.4051 52.6C64.2878 52.664 64.1811 52.6853 64.0851 52.664C63.9998 52.6427 63.9305 52.6 63.8771 52.536C63.8345 52.472 63.8025 52.3973 63.7811 52.312C63.7705 52.216 63.7865 52.1253 63.8291 52.04C63.8718 51.9547 63.9465 51.8853 64.0531 51.832C64.5011 51.5867 64.9545 51.4053 65.4131 51.288C65.8825 51.16 66.3358 51.096 66.7731 51.096C67.4025 51.096 67.9198 51.2027 68.3251 51.416C68.7411 51.6293 69.0451 51.9493 69.2371 52.376C69.4398 52.8027 69.5411 53.352 69.5411 54.024V58.6C69.5411 58.76 69.5038 58.8827 69.4291 58.968C69.3545 59.0533 69.2425 59.096 69.0931 59.096C68.9438 59.096 68.8265 59.0533 68.7411 58.968C68.6558 58.8827 68.6131 58.76 68.6131 58.6V57.128H68.7731C68.6771 57.544 68.5065 57.9013 68.2611 58.2C68.0158 58.4987 67.7118 58.728 67.3491 58.888C66.9865 59.048 66.5811 59.128 66.1331 59.128ZM76.7958 59.096C76.6571 59.096 76.5451 59.0533 76.4598 58.968C76.3851 58.8827 76.3478 58.7653 76.3478 58.616V48.104C76.3478 47.944 76.3851 47.8267 76.4598 47.752C76.5451 47.6667 76.6518 47.624 76.7798 47.624C76.9184 47.624 77.0251 47.6507 77.0998 47.704C77.1744 47.7573 77.2438 47.8427 77.3078 47.96L81.8838 56.648H81.4358L85.9798 47.96C86.0544 47.8427 86.1238 47.7573 86.1878 47.704C86.2624 47.6507 86.3691 47.624 86.5078 47.624C86.6358 47.624 86.7371 47.6667 86.8118 47.752C86.8971 47.8267 86.9398 47.944 86.9398 48.104V58.616C86.9398 58.7653 86.9024 58.8827 86.8278 58.968C86.7531 59.0533 86.6411 59.096 86.4918 59.096C86.3424 59.096 86.2251 59.0533 86.1398 58.968C86.0651 58.8827 86.0278 58.7653 86.0278 58.616V48.904H86.4118L82.1238 57.032C82.0704 57.1387 82.0118 57.2187 81.9478 57.272C81.8838 57.3253 81.7931 57.352 81.6758 57.352C81.5478 57.352 81.4464 57.3253 81.3718 57.272C81.3078 57.208 81.2491 57.128 81.1958 57.032L76.8598 48.888H77.2438V58.616C77.2438 58.7653 77.2064 58.8827 77.1318 58.968C77.0571 59.0533 76.9451 59.096 76.7958 59.096ZM93.0779 59.128C92.2779 59.128 91.5899 58.968 91.0139 58.648C90.4379 58.328 89.9952 57.8693 89.6859 57.272C89.3765 56.6747 89.2219 55.9653 89.2219 55.144C89.2219 54.3333 89.3765 53.6293 89.6859 53.032C89.9952 52.424 90.4219 51.9493 90.9659 51.608C91.5205 51.2667 92.1552 51.096 92.8699 51.096C93.3925 51.096 93.8512 51.1867 94.2459 51.368C94.6512 51.5387 94.9925 51.7893 95.2699 52.12C95.5579 52.44 95.7765 52.8347 95.9259 53.304C96.0752 53.7627 96.1499 54.2853 96.1499 54.872C96.1499 55.0213 96.1072 55.1333 96.0219 55.208C95.9472 55.2827 95.8405 55.32 95.7019 55.32H89.9259V54.6H95.5419L95.2859 54.808C95.2859 54.1893 95.1952 53.6667 95.0139 53.24C94.8325 52.8027 94.5605 52.4667 94.1979 52.232C93.8459 51.9973 93.4085 51.88 92.8859 51.88C92.2992 51.88 91.8032 52.0187 91.3979 52.296C90.9925 52.5627 90.6885 52.936 90.4859 53.416C90.2832 53.8853 90.1819 54.4293 90.1819 55.048V55.128C90.1819 56.152 90.4325 56.9413 90.9339 57.496C91.4352 58.04 92.1392 58.312 93.0459 58.312C93.4405 58.312 93.8192 58.2587 94.1819 58.152C94.5552 58.0453 94.9179 57.864 95.2699 57.608C95.3765 57.5333 95.4779 57.496 95.5739 57.496C95.6805 57.496 95.7659 57.5227 95.8299 57.576C95.9045 57.6293 95.9525 57.6987 95.9739 57.784C96.0059 57.8587 96.0005 57.944 95.9579 58.04C95.9259 58.1253 95.8565 58.2053 95.7499 58.28C95.4085 58.5573 94.9979 58.7707 94.5179 58.92C94.0379 59.0587 93.5579 59.128 93.0779 59.128ZM101.099 59.128C100.406 59.128 99.798 58.968 99.2754 58.648C98.7634 58.3173 98.3634 57.8533 98.0754 57.256C97.798 56.648 97.6594 55.9333 97.6594 55.112C97.6594 54.2907 97.798 53.5813 98.0754 52.984C98.3527 52.3867 98.7474 51.9227 99.2594 51.592C99.782 51.2613 100.395 51.096 101.099 51.096C101.825 51.096 102.443 51.2827 102.955 51.656C103.467 52.0293 103.809 52.5307 103.979 53.16H103.803V48.12C103.803 47.9493 103.846 47.8267 103.931 47.752C104.017 47.6667 104.134 47.624 104.283 47.624C104.443 47.624 104.566 47.6667 104.651 47.752C104.737 47.8267 104.779 47.9493 104.779 48.12V58.6C104.779 58.76 104.737 58.8827 104.651 58.968C104.566 59.0533 104.449 59.096 104.299 59.096C104.139 59.096 104.017 59.0533 103.931 58.968C103.846 58.8827 103.803 58.76 103.803 58.6V56.952L103.979 57.064C103.809 57.6933 103.467 58.1947 102.955 58.568C102.443 58.9413 101.825 59.128 101.099 59.128ZM101.227 58.312C101.761 58.312 102.219 58.1893 102.603 57.944C102.998 57.688 103.297 57.32 103.499 56.84C103.713 56.36 103.819 55.784 103.819 55.112C103.819 54.0987 103.585 53.3147 103.115 52.76C102.657 52.2053 102.027 51.928 101.227 51.928C100.705 51.928 100.246 52.056 99.8514 52.312C99.4674 52.5573 99.1687 52.92 98.9554 53.4C98.7527 53.8693 98.6514 54.44 98.6514 55.112C98.6514 56.136 98.886 56.9253 99.3554 57.48C99.8247 58.0347 100.449 58.312 101.227 58.312ZM110.431 59.128C109.705 59.128 109.076 58.9627 108.543 58.632C108.009 58.3013 107.593 57.8373 107.295 57.24C107.007 56.6427 106.863 55.9333 106.863 55.112C106.863 54.504 106.943 53.9547 107.103 53.464C107.273 52.9733 107.513 52.552 107.823 52.2C108.143 51.8373 108.521 51.5653 108.959 51.384C109.407 51.192 109.897 51.096 110.431 51.096C111.167 51.096 111.801 51.2613 112.335 51.592C112.868 51.9227 113.279 52.392 113.567 53C113.865 53.5973 114.015 54.3013 114.015 55.112C114.015 55.7307 113.929 56.2853 113.759 56.776C113.599 57.2667 113.359 57.688 113.039 58.04C112.729 58.392 112.356 58.664 111.919 58.856C111.481 59.0373 110.985 59.128 110.431 59.128ZM110.431 58.312C110.964 58.312 111.423 58.1893 111.807 57.944C112.201 57.688 112.5 57.32 112.703 56.84C112.916 56.36 113.023 55.784 113.023 55.112C113.023 54.0987 112.788 53.3147 112.319 52.76C111.86 52.2053 111.231 51.928 110.431 51.928C109.908 51.928 109.449 52.056 109.055 52.312C108.671 52.5573 108.372 52.92 108.159 53.4C107.956 53.8693 107.855 54.44 107.855 55.112C107.855 56.136 108.089 56.9253 108.559 57.48C109.028 58.0347 109.652 58.312 110.431 58.312ZM118.799 59.096C118.639 59.096 118.505 59.0533 118.399 58.968C118.292 58.8827 118.196 58.7547 118.111 58.584L115.231 51.864C115.177 51.736 115.156 51.6187 115.167 51.512C115.188 51.3947 115.236 51.304 115.311 51.24C115.396 51.1653 115.513 51.128 115.663 51.128C115.801 51.128 115.903 51.16 115.967 51.224C116.041 51.288 116.105 51.3893 116.159 51.528L119.007 58.408H118.607L121.471 51.528C121.524 51.3893 121.588 51.288 121.663 51.224C121.737 51.16 121.844 51.128 121.983 51.128C122.121 51.128 122.223 51.1653 122.287 51.24C122.361 51.304 122.404 51.3893 122.415 51.496C122.425 51.6027 122.404 51.72 122.351 51.848L119.471 58.584C119.407 58.7547 119.316 58.8827 119.199 58.968C119.081 59.0533 118.948 59.096 118.799 59.096ZM124.635 59.064C124.475 59.064 124.353 59.016 124.267 58.92C124.182 58.824 124.139 58.696 124.139 58.536V51.688C124.139 51.5173 124.182 51.3893 124.267 51.304C124.353 51.2187 124.475 51.176 124.635 51.176C124.785 51.176 124.902 51.2187 124.987 51.304C125.073 51.3893 125.115 51.5173 125.115 51.688V58.536C125.115 58.696 125.073 58.824 124.987 58.92C124.913 59.016 124.795 59.064 124.635 59.064ZM124.635 49.24C124.411 49.24 124.235 49.1813 124.107 49.064C123.99 48.9467 123.931 48.7813 123.931 48.568C123.931 48.3547 123.99 48.1947 124.107 48.088C124.235 47.9707 124.411 47.912 124.635 47.912C124.859 47.912 125.03 47.9707 125.147 48.088C125.275 48.1947 125.339 48.3547 125.339 48.568C125.339 48.7813 125.275 48.9467 125.147 49.064C125.03 49.1813 124.859 49.24 124.635 49.24ZM130.854 59.128C130.097 59.128 129.446 58.9627 128.902 58.632C128.358 58.2907 127.937 57.816 127.638 57.208C127.35 56.5893 127.206 55.8747 127.206 55.064C127.206 54.4453 127.286 53.896 127.446 53.416C127.617 52.9253 127.857 52.5093 128.166 52.168C128.486 51.8267 128.87 51.5653 129.318 51.384C129.777 51.192 130.289 51.096 130.854 51.096C131.249 51.096 131.654 51.1653 132.07 51.304C132.486 51.432 132.865 51.6507 133.206 51.96C133.281 52.024 133.329 52.0987 133.35 52.184C133.372 52.2693 133.366 52.3547 133.334 52.44C133.302 52.5147 133.254 52.5787 133.19 52.632C133.126 52.6747 133.046 52.7013 132.95 52.712C132.865 52.712 132.774 52.6693 132.678 52.584C132.38 52.3387 132.076 52.1733 131.766 52.088C131.468 51.992 131.174 51.944 130.886 51.944C130.449 51.944 130.065 52.0133 129.734 52.152C129.404 52.2907 129.121 52.4933 128.886 52.76C128.662 53.0267 128.492 53.3573 128.374 53.752C128.257 54.136 128.198 54.5787 128.198 55.08C128.198 56.0827 128.428 56.872 128.886 57.448C129.356 58.0133 130.022 58.296 130.886 58.296C131.174 58.296 131.468 58.2533 131.766 58.168C132.076 58.072 132.38 57.9013 132.678 57.656C132.774 57.5707 132.865 57.5333 132.95 57.544C133.046 57.544 133.126 57.5707 133.19 57.624C133.254 57.6667 133.297 57.7307 133.318 57.816C133.35 57.8907 133.356 57.9707 133.334 58.056C133.313 58.1413 133.265 58.216 133.19 58.28C132.86 58.5893 132.486 58.808 132.07 58.936C131.654 59.064 131.249 59.128 130.854 59.128ZM131.238 50.136C131.185 50.2213 131.116 50.2747 131.03 50.296C130.945 50.3067 130.86 50.296 130.774 50.264C130.7 50.2213 130.646 50.1627 130.614 50.088C130.582 50.0027 130.593 49.9067 130.646 49.8L132.054 47.096C132.118 46.968 132.198 46.888 132.294 46.856C132.39 46.8133 132.486 46.8027 132.582 46.824C132.678 46.8453 132.758 46.8933 132.822 46.968C132.897 47.032 132.94 47.112 132.95 47.208C132.972 47.304 132.95 47.4053 132.886 47.512L131.238 50.136Z" fill="black"/>
</svg>
