<svg width="158" height="65" viewBox="0 0 158 65" fill="none" xmlns="http://www.w3.org/2000/svg">
<path d="M21.696 12.344V12.984C20.9707 13.0267 20.4267 13.1547 20.064 13.368C19.7013 13.5813 19.456 13.9333 19.328 14.424C19.2213 14.8933 19.168 15.5653 19.168 16.44V35.128C18.9973 35.128 18.8267 35.128 18.656 35.128C18.4853 35.128 18.304 35.128 18.112 35.128L4.544 15.416V30.776C4.544 31.672 4.608 32.376 4.736 32.888C4.864 33.3787 5.14133 33.7307 5.568 33.944C5.99467 34.1573 6.64533 34.296 7.52 34.36V35C7.11467 34.9573 6.592 34.936 5.952 34.936C5.33333 34.9147 4.74667 34.904 4.192 34.904C3.65867 34.904 3.12533 34.9147 2.592 34.936C2.05867 34.936 1.62133 34.9573 1.28 35V34.36C1.984 34.296 2.51733 34.168 2.88 33.976C3.24267 33.7627 3.488 33.4107 3.616 32.92C3.744 32.4293 3.808 31.7573 3.808 30.904V15.736C3.808 14.9467 3.744 14.3707 3.616 14.008C3.488 13.624 3.24267 13.368 2.88 13.24C2.51733 13.0907 1.984 13.0053 1.28 12.984V12.344C1.62133 12.3653 2.05867 12.3867 2.592 12.408C3.12533 12.4293 3.65867 12.44 4.192 12.44C4.66133 12.44 5.12 12.4293 5.568 12.408C6.016 12.3867 6.41067 12.3653 6.752 12.344L18.432 29.048V16.568C18.432 15.6507 18.3573 14.9467 18.208 14.456C18.08 13.9653 17.8027 13.6133 17.376 13.4C16.9493 13.1653 16.3093 13.0267 15.456 12.984V12.344C15.84 12.3653 16.352 12.3867 16.992 12.408C17.632 12.4293 18.2293 12.44 18.784 12.44C19.3173 12.44 19.8507 12.4293 20.384 12.408C20.9173 12.3867 21.3547 12.3653 21.696 12.344ZM27.4385 35.224C26.5425 35.224 25.7745 35.0533 25.1345 34.712C24.4945 34.3707 24.0145 33.9013 23.6945 33.304C23.3745 32.7067 23.2145 32.024 23.2145 31.256C23.2145 30.3173 23.4278 29.56 23.8545 28.984C24.2812 28.3867 24.8252 27.9067 25.4865 27.544C26.1692 27.1813 26.8838 26.8827 27.6305 26.648C28.3985 26.392 29.1132 26.1573 29.7745 25.944C30.4572 25.7093 31.0118 25.4427 31.4385 25.144C31.8865 24.8453 32.1105 24.4507 32.1105 23.96V21.784C32.1105 21.016 31.9825 20.408 31.7265 19.96C31.4918 19.4907 31.1612 19.16 30.7345 18.968C30.3292 18.776 29.8385 18.68 29.2625 18.68C28.7718 18.68 28.2492 18.7547 27.6945 18.904C27.1398 19.032 26.7025 19.2987 26.3825 19.704C26.8518 19.832 27.2358 20.088 27.5345 20.472C27.8545 20.8347 28.0145 21.2933 28.0145 21.848C28.0145 22.4453 27.8118 22.9147 27.4065 23.256C27.0225 23.5973 26.5318 23.768 25.9345 23.768C25.2732 23.768 24.7825 23.5653 24.4625 23.16C24.1425 22.7333 23.9825 22.2427 23.9825 21.688C23.9825 21.112 24.1212 20.6427 24.3985 20.28C24.6972 19.9173 25.0812 19.576 25.5505 19.256C26.0625 18.9147 26.7132 18.6267 27.5025 18.392C28.3132 18.1573 29.2092 18.04 30.1905 18.04C31.1078 18.04 31.8972 18.1467 32.5585 18.36C33.2412 18.552 33.8065 18.872 34.2545 19.32C34.7878 19.8107 35.1398 20.4293 35.3105 21.176C35.4812 21.9013 35.5665 22.7867 35.5665 23.832V32.664C35.5665 33.1973 35.6305 33.5813 35.7585 33.816C35.9078 34.0293 36.1425 34.136 36.4625 34.136C36.6758 34.136 36.8785 34.0827 37.0705 33.976C37.2838 33.8693 37.5292 33.7093 37.8065 33.496L38.1265 34.04C37.6785 34.4027 37.2198 34.6907 36.7505 34.904C36.3025 35.1173 35.7265 35.224 35.0225 35.224C34.3398 35.224 33.7852 35.1173 33.3585 34.904C32.9318 34.6907 32.6118 34.3813 32.3985 33.976C32.2065 33.5707 32.1105 33.0693 32.1105 32.472C31.5558 33.368 30.8945 34.0507 30.1265 34.52C29.3585 34.9893 28.4625 35.224 27.4385 35.224ZM28.9745 33.688C29.5718 33.688 30.1265 33.5173 30.6385 33.176C31.1718 32.8347 31.6625 32.3227 32.1105 31.64V25.272C31.8758 25.6133 31.5345 25.912 31.0865 26.168C30.6385 26.4027 30.1585 26.648 29.6465 26.904C29.1345 27.16 28.6438 27.4587 28.1745 27.8C27.7265 28.12 27.3532 28.536 27.0545 29.048C26.7558 29.56 26.6065 30.2107 26.6065 31C26.6065 31.832 26.8198 32.4933 27.2465 32.984C27.6732 33.4533 28.2492 33.688 28.9745 33.688ZM42.9227 10.424C43.5841 10.424 44.1388 10.6373 44.5868 11.064C45.0348 11.4693 45.2588 11.9813 45.2588 12.6C45.2588 13.2187 45.0348 13.7413 44.5868 14.168C44.1388 14.5733 43.5841 14.776 42.9227 14.776C42.2614 14.776 41.7068 14.5733 41.2588 14.168C40.8108 13.7413 40.5868 13.2187 40.5868 12.6C40.5868 11.9813 40.8108 11.4693 41.2588 11.064C41.7068 10.6373 42.2614 10.424 42.9227 10.424ZM44.8428 18.136V32.024C44.8428 32.92 45.0134 33.528 45.3548 33.848C45.7174 34.168 46.3148 34.328 47.1468 34.328V35C46.7841 34.9787 46.2188 34.9573 45.4508 34.936C44.7041 34.8933 43.9361 34.872 43.1468 34.872C42.4001 34.872 41.6321 34.8933 40.8428 34.936C40.0534 34.9573 39.4668 34.9787 39.0828 35V34.328C39.9147 34.328 40.5014 34.168 40.8428 33.848C41.2054 33.528 41.3868 32.92 41.3868 32.024V21.976C41.3868 21.016 41.2268 20.312 40.9068 19.864C40.5868 19.3947 39.9788 19.16 39.0828 19.16V18.488C39.7654 18.552 40.4268 18.584 41.0668 18.584C41.7921 18.584 42.4641 18.552 43.0828 18.488C43.7228 18.4027 44.3094 18.2853 44.8428 18.136ZM54.2445 9.912V32.024C54.2445 32.92 54.4152 33.528 54.7565 33.848C55.1192 34.168 55.7165 34.328 56.5485 34.328V35C56.1858 34.9787 55.6205 34.9573 54.8525 34.936C54.0845 34.8933 53.3165 34.872 52.5485 34.872C51.7805 34.872 51.0018 34.8933 50.2125 34.936C49.4445 34.9573 48.8685 34.9787 48.4845 35V34.328C49.3165 34.328 49.9032 34.168 50.2445 33.848C50.6072 33.528 50.7885 32.92 50.7885 32.024V13.752C50.7885 12.792 50.6285 12.088 50.3085 11.64C49.9885 11.1707 49.3805 10.936 48.4845 10.936V10.264C49.1672 10.328 49.8285 10.36 50.4685 10.36C51.1725 10.36 51.8445 10.328 52.4845 10.264C53.1245 10.1787 53.7112 10.0613 54.2445 9.912ZM67.5868 12.344C71.5334 12.344 74.4668 13.304 76.3868 15.224C78.3068 17.1227 79.2668 19.8533 79.2668 23.416C79.2668 25.7413 78.7974 27.7787 77.8588 29.528C76.9201 31.256 75.5548 32.6 73.7628 33.56C71.9921 34.52 69.8374 35 67.2988 35C66.9788 35 66.5414 34.9893 65.9868 34.968C65.4534 34.9467 64.8988 34.936 64.3228 34.936C63.7468 34.9147 63.2241 34.904 62.7548 34.904C61.9441 34.904 61.1441 34.9147 60.3548 34.936C59.5868 34.936 58.9574 34.9573 58.4668 35V34.36C59.1921 34.3173 59.7361 34.232 60.0988 34.104C60.4614 33.976 60.6961 33.72 60.8028 33.336C60.9308 32.952 60.9948 32.376 60.9948 31.608V15.736C60.9948 14.9467 60.9308 14.3707 60.8028 14.008C60.6961 13.624 60.4508 13.368 60.0668 13.24C59.7041 13.0907 59.1708 13.0053 58.4668 12.984V12.344C58.9574 12.3653 59.5868 12.3973 60.3548 12.44C61.1441 12.4613 61.9228 12.4613 62.6908 12.44C63.4588 12.4187 64.3121 12.3973 65.2508 12.376C66.2108 12.3547 66.9894 12.344 67.5868 12.344ZM67.0428 12.92C66.0614 12.92 65.4214 13.1013 65.1228 13.464C64.8241 13.8267 64.6748 14.5627 64.6748 15.672V31.672C64.6748 32.7813 64.8241 33.5173 65.1228 33.88C65.4428 34.2427 66.0934 34.424 67.0748 34.424C69.2294 34.424 70.9041 34.008 72.0988 33.176C73.2934 32.3227 74.1361 31.0853 74.6268 29.464C75.1174 27.8427 75.3628 25.8693 75.3628 23.544C75.3628 21.1547 75.0961 19.1813 74.5628 17.624C74.0294 16.0453 73.1548 14.872 71.9388 14.104C70.7441 13.3147 69.1121 12.92 67.0428 12.92ZM89.7375 18.04C91.6148 18.04 93.0868 18.6053 94.1535 19.736C95.2202 20.8667 95.7535 22.6587 95.7535 25.112H84.7135L84.6495 24.504H92.3615C92.3828 23.4587 92.2975 22.4987 92.1055 21.624C91.9135 20.728 91.6148 20.0133 91.2095 19.48C90.8042 18.9467 90.2708 18.68 89.6095 18.68C88.6922 18.68 87.8922 19.1707 87.2095 20.152C86.5482 21.112 86.1428 22.6587 85.9935 24.792L86.0895 24.952C86.0682 25.2507 86.0468 25.5813 86.0255 25.944C86.0042 26.2853 85.9935 26.6267 85.9935 26.968C85.9935 28.44 86.2175 29.6773 86.6655 30.68C87.1135 31.6827 87.7002 32.44 88.4255 32.952C89.1508 33.4427 89.8868 33.688 90.6335 33.688C91.2095 33.688 91.7642 33.6027 92.2975 33.432C92.8522 33.24 93.3748 32.9307 93.8655 32.504C94.3562 32.056 94.7935 31.448 95.1775 30.68L95.8175 30.936C95.5615 31.6613 95.1668 32.376 94.6335 33.08C94.1002 33.784 93.4175 34.36 92.5855 34.808C91.7535 35.2347 90.7828 35.448 89.6735 35.448C88.1802 35.448 86.8788 35.1173 85.7695 34.456C84.6602 33.7733 83.8068 32.8027 83.2095 31.544C82.6122 30.2853 82.3135 28.792 82.3135 27.064C82.3135 25.1653 82.6228 23.544 83.2415 22.2C83.8602 20.856 84.7242 19.832 85.8335 19.128C86.9642 18.4027 88.2655 18.04 89.7375 18.04ZM103.91 18.04C104.763 18.04 105.499 18.1787 106.118 18.456C106.758 18.712 107.216 18.9467 107.494 19.16C108.198 19.7147 108.635 19.352 108.806 18.072H109.51C109.467 18.6693 109.435 19.3947 109.414 20.248C109.392 21.08 109.382 22.1893 109.382 23.576H108.678C108.55 22.7867 108.326 22.0187 108.006 21.272C107.707 20.5253 107.259 19.9067 106.662 19.416C106.086 18.9253 105.328 18.68 104.39 18.68C103.686 18.68 103.099 18.8827 102.63 19.288C102.16 19.672 101.926 20.248 101.926 21.016C101.926 21.656 102.118 22.2107 102.502 22.68C102.886 23.1493 103.376 23.5867 103.974 23.992C104.592 24.3973 105.254 24.8347 105.958 25.304C106.747 25.8373 107.451 26.3707 108.07 26.904C108.71 27.416 109.211 27.992 109.574 28.632C109.958 29.272 110.15 30.0187 110.15 30.872C110.15 31.8533 109.883 32.6853 109.35 33.368C108.838 34.0507 108.155 34.5733 107.302 34.936C106.448 35.2773 105.51 35.448 104.486 35.448C103.974 35.448 103.494 35.3947 103.046 35.288C102.598 35.2027 102.182 35.0853 101.798 34.936C101.563 34.808 101.328 34.68 101.094 34.552C100.88 34.4027 100.667 34.264 100.454 34.136C100.24 33.9867 100.048 34.008 99.8778 34.2C99.7071 34.392 99.5791 34.7333 99.4938 35.224H98.7898C98.8324 34.5413 98.8644 33.7093 98.8858 32.728C98.9071 31.7467 98.9178 30.4453 98.9178 28.824H99.6218C99.7711 29.9973 99.9951 31.032 100.294 31.928C100.592 32.824 101.03 33.528 101.606 34.04C102.203 34.5307 103.014 34.776 104.038 34.776C104.443 34.776 104.848 34.6907 105.254 34.52C105.659 34.328 105.99 34.0293 106.246 33.624C106.523 33.2187 106.662 32.6747 106.662 31.992C106.662 31.0533 106.331 30.2853 105.67 29.688C105.03 29.0693 104.198 28.4187 103.174 27.736C102.448 27.224 101.755 26.7227 101.094 26.232C100.454 25.72 99.9311 25.1547 99.5258 24.536C99.1204 23.896 98.9178 23.1387 98.9178 22.264C98.9178 21.304 99.1418 20.5147 99.5898 19.896C100.059 19.2773 100.678 18.8187 101.446 18.52C102.214 18.2 103.035 18.04 103.91 18.04ZM116.266 10.424C116.928 10.424 117.483 10.6373 117.931 11.064C118.379 11.4693 118.603 11.9813 118.603 12.6C118.603 13.2187 118.379 13.7413 117.931 14.168C117.483 14.5733 116.928 14.776 116.266 14.776C115.605 14.776 115.051 14.5733 114.603 14.168C114.155 13.7413 113.931 13.2187 113.931 12.6C113.931 11.9813 114.155 11.4693 114.603 11.064C115.051 10.6373 115.605 10.424 116.266 10.424ZM118.187 18.136V32.024C118.187 32.92 118.357 33.528 118.699 33.848C119.061 34.168 119.659 34.328 120.491 34.328V35C120.128 34.9787 119.563 34.9573 118.795 34.936C118.048 34.8933 117.28 34.872 116.491 34.872C115.744 34.872 114.976 34.8933 114.187 34.936C113.397 34.9573 112.811 34.9787 112.427 35V34.328C113.258 34.328 113.845 34.168 114.187 33.848C114.549 33.528 114.731 32.92 114.731 32.024V21.976C114.731 21.016 114.571 20.312 114.251 19.864C113.931 19.3947 113.323 19.16 112.427 19.16V18.488C113.109 18.552 113.771 18.584 114.411 18.584C115.136 18.584 115.808 18.552 116.427 18.488C117.067 18.4027 117.653 18.2853 118.187 18.136ZM128.036 41.016C126.842 41.016 125.732 40.8987 124.708 40.664C123.706 40.4293 122.895 40.0667 122.276 39.576C121.679 39.1067 121.38 38.4987 121.38 37.752C121.38 37.048 121.679 36.4293 122.276 35.896C122.874 35.3627 123.716 34.9573 124.804 34.68L125.028 35.192C124.58 35.384 124.228 35.6933 123.972 36.12C123.738 36.5467 123.62 37.016 123.62 37.528C123.62 38.4667 124.058 39.192 124.932 39.704C125.807 40.216 126.959 40.472 128.388 40.472C129.348 40.472 130.255 40.344 131.108 40.088C131.983 39.8533 132.687 39.4587 133.22 38.904C133.775 38.3493 134.052 37.6347 134.052 36.76C134.052 36.0773 133.807 35.5013 133.316 35.032C132.826 34.584 131.855 34.36 130.404 34.36H128.164C127.418 34.36 126.724 34.296 126.084 34.168C125.444 34.04 124.922 33.7947 124.516 33.432C124.132 33.048 123.94 32.5147 123.94 31.832C123.94 31.064 124.26 30.3387 124.9 29.656C125.54 28.9733 126.618 28.3013 128.132 27.64L128.516 27.928C127.898 28.2693 127.343 28.6213 126.852 28.984C126.383 29.3253 126.148 29.752 126.148 30.264C126.148 30.9467 126.639 31.288 127.62 31.288H131.428C132.431 31.288 133.338 31.4267 134.148 31.704C134.959 31.96 135.61 32.376 136.1 32.952C136.591 33.528 136.836 34.2853 136.836 35.224C136.836 36.2267 136.506 37.1653 135.844 38.04C135.204 38.936 134.234 39.6507 132.932 40.184C131.631 40.7387 129.999 41.016 128.036 41.016ZM128.228 28.184C127.14 28.184 126.148 28.0133 125.252 27.672C124.356 27.3093 123.652 26.7547 123.14 26.008C122.628 25.2613 122.372 24.3013 122.372 23.128C122.372 21.9547 122.628 20.9947 123.14 20.248C123.652 19.48 124.356 18.9253 125.252 18.584C126.148 18.2213 127.14 18.04 128.228 18.04C129.359 18.04 130.362 18.2213 131.236 18.584C132.111 18.9253 132.804 19.48 133.316 20.248C133.828 20.9947 134.084 21.9547 134.084 23.128C134.084 24.3013 133.828 25.2613 133.316 26.008C132.804 26.7547 132.111 27.3093 131.236 27.672C130.362 28.0133 129.359 28.184 128.228 28.184ZM128.228 27.608C128.975 27.608 129.551 27.288 129.956 26.648C130.362 26.008 130.564 24.8347 130.564 23.128C130.564 21.4213 130.362 20.248 129.956 19.608C129.551 18.9467 128.975 18.616 128.228 18.616C127.524 18.616 126.959 18.9467 126.532 19.608C126.106 20.248 125.892 21.4213 125.892 23.128C125.892 24.8347 126.106 26.008 126.532 26.648C126.959 27.288 127.524 27.608 128.228 27.608ZM132.964 20.728L132.388 20.504C132.687 19.7573 133.199 19.1067 133.924 18.552C134.65 17.9973 135.407 17.72 136.196 17.72C136.794 17.72 137.263 17.8907 137.604 18.232C137.967 18.552 138.148 19.0107 138.148 19.608C138.148 20.2693 137.967 20.7387 137.604 21.016C137.263 21.2933 136.9 21.432 136.516 21.432C136.175 21.432 135.855 21.3147 135.556 21.08C135.279 20.8453 135.119 20.4827 135.076 19.992C135.034 19.48 135.194 18.8293 135.556 18.04L135.908 18.168C135.055 18.5093 134.426 18.872 134.02 19.256C133.636 19.6187 133.284 20.1093 132.964 20.728ZM150.313 18.04C151.166 18.04 151.859 18.1573 152.393 18.392C152.947 18.6053 153.406 18.904 153.769 19.288C154.153 19.6933 154.419 20.216 154.569 20.856C154.739 21.496 154.825 22.36 154.825 23.448V32.024C154.825 32.92 154.995 33.528 155.337 33.848C155.699 34.168 156.297 34.328 157.128 34.328V35C156.766 34.9787 156.201 34.9573 155.433 34.936C154.665 34.8933 153.907 34.872 153.161 34.872C152.435 34.872 151.71 34.8933 150.985 34.936C150.281 34.9573 149.747 34.9787 149.385 35V34.328C150.11 34.328 150.622 34.168 150.921 33.848C151.219 33.528 151.369 32.92 151.369 32.024V22.552C151.369 21.9333 151.315 21.3787 151.209 20.888C151.102 20.376 150.878 19.9707 150.537 19.672C150.195 19.352 149.683 19.192 149.001 19.192C148.211 19.192 147.507 19.416 146.889 19.864C146.291 20.312 145.811 20.9307 145.449 21.72C145.107 22.488 144.937 23.352 144.937 24.312V32.024C144.937 32.92 145.086 33.528 145.385 33.848C145.705 34.168 146.217 34.328 146.921 34.328V35C146.579 34.9787 146.057 34.9573 145.353 34.936C144.67 34.8933 143.955 34.872 143.209 34.872C142.483 34.872 141.726 34.8933 140.937 34.936C140.147 34.9573 139.561 34.9787 139.177 35V34.328C140.008 34.328 140.595 34.168 140.937 33.848C141.299 33.528 141.481 32.92 141.481 32.024V21.976C141.481 21.016 141.321 20.312 141.001 19.864C140.681 19.3947 140.073 19.16 139.177 19.16V18.488C139.859 18.552 140.521 18.584 141.161 18.584C141.886 18.584 142.558 18.552 143.177 18.488C143.817 18.4027 144.403 18.2853 144.937 18.136V21.624C145.491 20.3013 146.249 19.3733 147.209 18.84C148.19 18.3067 149.225 18.04 150.313 18.04Z" fill="#252525"/>
<path d="M2.064 59C1.85067 59 1.68533 58.9413 1.568 58.824C1.45067 58.696 1.392 58.5253 1.392 58.312V48.328C1.392 48.104 1.44533 47.9333 1.552 47.816C1.66933 47.6987 1.83467 47.64 2.048 47.64C2.26133 47.64 2.42133 47.6987 2.528 47.816C2.64533 47.9333 2.704 48.104 2.704 48.328V57.848H7.952C8.144 57.848 8.29333 57.9013 8.4 58.008C8.50667 58.104 8.56 58.2427 8.56 58.424C8.56 58.6053 8.50667 58.7493 8.4 58.856C8.29333 58.952 8.144 59 7.952 59H2.064ZM8.4155 62.056C8.2555 62.0667 8.1275 62.04 8.0315 61.976C7.92483 61.912 7.8555 61.8267 7.8235 61.72C7.78083 61.624 7.77017 61.5227 7.7915 61.416C7.80217 61.32 7.84483 61.2347 7.9195 61.16C7.99417 61.0853 8.0955 61.048 8.2235 61.048C8.81017 61.016 9.24217 60.856 9.5195 60.568C9.8075 60.2907 9.9515 59.848 9.9515 59.24V51.768C9.9515 51.5547 10.0048 51.3947 10.1115 51.288C10.2288 51.1707 10.3942 51.112 10.6075 51.112C10.8102 51.112 10.9648 51.1707 11.0715 51.288C11.1888 51.3947 11.2475 51.5547 11.2475 51.768V59.144C11.2475 59.7947 11.1355 60.328 10.9115 60.744C10.6982 61.1707 10.3835 61.4853 9.9675 61.688C9.5515 61.9013 9.03417 62.024 8.4155 62.056ZM10.5915 49.352C10.3248 49.352 10.1168 49.2827 9.9675 49.144C9.81817 48.9947 9.7435 48.7973 9.7435 48.552C9.7435 48.296 9.81817 48.104 9.9675 47.976C10.1168 47.8373 10.3248 47.768 10.5915 47.768C10.8688 47.768 11.0822 47.8373 11.2315 47.976C11.3808 48.104 11.4555 48.296 11.4555 48.552C11.4555 48.7973 11.3808 48.9947 11.2315 49.144C11.0822 49.2827 10.8688 49.352 10.5915 49.352ZM14.3248 59.08C14.1114 59.08 13.9514 59.0213 13.8448 58.904C13.7381 58.776 13.6848 58.6 13.6848 58.376V51.832C13.6848 51.608 13.7381 51.4373 13.8448 51.32C13.9514 51.2027 14.1114 51.144 14.3248 51.144C14.5274 51.144 14.6874 51.2027 14.8048 51.32C14.9221 51.4373 14.9808 51.608 14.9808 51.832V58.376C14.9808 58.6 14.9221 58.776 14.8048 58.904C14.6981 59.0213 14.5381 59.08 14.3248 59.08ZM14.3248 49.352C14.0581 49.352 13.8501 49.2827 13.7008 49.144C13.5514 48.9947 13.4768 48.7973 13.4768 48.552C13.4768 48.296 13.5514 48.104 13.7008 47.976C13.8501 47.8373 14.0581 47.768 14.3248 47.768C14.6021 47.768 14.8101 47.8373 14.9488 47.976C15.0981 48.104 15.1728 48.296 15.1728 48.552C15.1728 48.7973 15.0981 48.9947 14.9488 49.144C14.8101 49.2827 14.6021 49.352 14.3248 49.352ZM19.7715 59.144C19.0035 59.144 18.4168 58.9093 18.0115 58.44C17.6062 57.9707 17.4035 57.2987 17.4035 56.424V48.264C17.4035 48.0507 17.4568 47.8907 17.5635 47.784C17.6702 47.6667 17.8302 47.608 18.0435 47.608C18.2462 47.608 18.4062 47.6667 18.5235 47.784C18.6408 47.8907 18.6995 48.0507 18.6995 48.264V56.328C18.6995 56.904 18.8115 57.336 19.0355 57.624C19.2702 57.9013 19.6115 58.04 20.0595 58.04C20.1555 58.04 20.2408 58.0347 20.3155 58.024C20.3902 58.0133 20.4648 58.008 20.5395 58.008C20.6568 57.9973 20.7368 58.024 20.7795 58.088C20.8328 58.152 20.8595 58.28 20.8595 58.472C20.8595 58.664 20.8168 58.808 20.7315 58.904C20.6462 59 20.5075 59.064 20.3155 59.096C20.2302 59.1067 20.1395 59.1173 20.0435 59.128C19.9475 59.1387 19.8568 59.144 19.7715 59.144ZM20.6499 62.056C20.4899 62.0667 20.3619 62.04 20.2659 61.976C20.1592 61.912 20.0899 61.8267 20.0579 61.72C20.0152 61.624 20.0045 61.5227 20.0259 61.416C20.0365 61.32 20.0792 61.2347 20.1539 61.16C20.2285 61.0853 20.3299 61.048 20.4579 61.048C21.0445 61.016 21.4765 60.856 21.7539 60.568C22.0419 60.2907 22.1859 59.848 22.1859 59.24V51.768C22.1859 51.5547 22.2392 51.3947 22.3459 51.288C22.4632 51.1707 22.6285 51.112 22.8419 51.112C23.0445 51.112 23.1992 51.1707 23.3059 51.288C23.4232 51.3947 23.4819 51.5547 23.4819 51.768V59.144C23.4819 59.7947 23.3699 60.328 23.1459 60.744C22.9325 61.1707 22.6179 61.4853 22.2019 61.688C21.7859 61.9013 21.2685 62.024 20.6499 62.056ZM22.8259 49.352C22.5592 49.352 22.3512 49.2827 22.2019 49.144C22.0525 48.9947 21.9779 48.7973 21.9779 48.552C21.9779 48.296 22.0525 48.104 22.2019 47.976C22.3512 47.8373 22.5592 47.768 22.8259 47.768C23.1032 47.768 23.3165 47.8373 23.4659 47.976C23.6152 48.104 23.6899 48.296 23.6899 48.552C23.6899 48.7973 23.6152 48.9947 23.4659 49.144C23.3165 49.2827 23.1032 49.352 22.8259 49.352ZM28.3671 59.144C27.8338 59.144 27.3538 59.0427 26.9271 58.84C26.5111 58.6267 26.1805 58.3387 25.9351 57.976C25.6898 57.6133 25.5671 57.208 25.5671 56.76C25.5671 56.184 25.7111 55.7307 25.9991 55.4C26.2978 55.0693 26.7831 54.8347 27.4551 54.696C28.1378 54.5573 29.0658 54.488 30.2391 54.488H30.9591V55.336H30.2551C29.3911 55.336 28.7085 55.3787 28.2071 55.464C27.7165 55.5387 27.3698 55.672 27.1671 55.864C26.9751 56.056 26.8791 56.328 26.8791 56.68C26.8791 57.1173 27.0285 57.4747 27.3271 57.752C27.6365 58.0293 28.0525 58.168 28.5751 58.168C29.0018 58.168 29.3751 58.0667 29.6951 57.864C30.0258 57.6613 30.2818 57.384 30.4631 57.032C30.6551 56.68 30.7511 56.2747 30.7511 55.816V53.992C30.7511 53.3307 30.6178 52.856 30.3511 52.568C30.0845 52.2693 29.6471 52.12 29.0391 52.12C28.6658 52.12 28.2925 52.168 27.9191 52.264C27.5458 52.36 27.1511 52.5147 26.7351 52.728C26.5858 52.8027 26.4578 52.8293 26.3511 52.808C26.2445 52.776 26.1591 52.7173 26.0951 52.632C26.0311 52.5467 25.9938 52.4507 25.9831 52.344C25.9725 52.2267 25.9938 52.1147 26.0471 52.008C26.1111 51.9013 26.2071 51.816 26.3351 51.752C26.8045 51.5173 27.2685 51.3467 27.7271 51.24C28.1858 51.1333 28.6231 51.08 29.0391 51.08C29.7111 51.08 30.2658 51.192 30.7031 51.416C31.1405 51.6293 31.4658 51.96 31.6791 52.408C31.8925 52.8453 31.9991 53.4107 31.9991 54.104V58.44C31.9991 58.6533 31.9458 58.8187 31.8391 58.936C31.7431 59.0533 31.5991 59.112 31.4071 59.112C31.2045 59.112 31.0498 59.0533 30.9431 58.936C30.8365 58.8187 30.7831 58.6533 30.7831 58.44V57.192H30.9271C30.8418 57.5973 30.6765 57.944 30.4311 58.232C30.1965 58.52 29.9031 58.744 29.5511 58.904C29.1991 59.064 28.8045 59.144 28.3671 59.144ZM35.0435 59.112C34.8302 59.112 34.6702 59.0533 34.5635 58.936C34.4568 58.8187 34.4035 58.6533 34.4035 58.44V51.768C34.4035 51.5547 34.4568 51.3947 34.5635 51.288C34.6702 51.1707 34.8248 51.112 35.0275 51.112C35.2302 51.112 35.3848 51.1707 35.4915 51.288C35.6088 51.3947 35.6675 51.5547 35.6675 51.768V53.144L35.4915 52.952C35.7155 52.3333 36.0782 51.8693 36.5795 51.56C37.0915 51.24 37.6782 51.08 38.3395 51.08C38.9582 51.08 39.4702 51.192 39.8755 51.416C40.2915 51.64 40.6008 51.9813 40.8035 52.44C41.0062 52.888 41.1075 53.4587 41.1075 54.152V58.44C41.1075 58.6533 41.0488 58.8187 40.9315 58.936C40.8248 59.0533 40.6702 59.112 40.4675 59.112C40.2542 59.112 40.0888 59.0533 39.9715 58.936C39.8648 58.8187 39.8115 58.6533 39.8115 58.44V54.232C39.8115 53.5067 39.6675 52.9787 39.3795 52.648C39.1022 52.3067 38.6542 52.136 38.0355 52.136C37.3208 52.136 36.7502 52.36 36.3235 52.808C35.9075 53.2453 35.6995 53.832 35.6995 54.568V58.44C35.6995 58.888 35.4808 59.112 35.0435 59.112ZM45.9453 59.144C45.4119 59.144 44.9319 59.0427 44.5053 58.84C44.0893 58.6267 43.7586 58.3387 43.5133 57.976C43.2679 57.6133 43.1453 57.208 43.1453 56.76C43.1453 56.184 43.2893 55.7307 43.5773 55.4C43.8759 55.0693 44.3613 54.8347 45.0333 54.696C45.7159 54.5573 46.6439 54.488 47.8173 54.488H48.5373V55.336H47.8333C46.9693 55.336 46.2866 55.3787 45.7853 55.464C45.2946 55.5387 44.9479 55.672 44.7453 55.864C44.5533 56.056 44.4573 56.328 44.4573 56.68C44.4573 57.1173 44.6066 57.4747 44.9053 57.752C45.2146 58.0293 45.6306 58.168 46.1533 58.168C46.5799 58.168 46.9533 58.0667 47.2733 57.864C47.6039 57.6613 47.8599 57.384 48.0413 57.032C48.2333 56.68 48.3293 56.2747 48.3293 55.816V53.992C48.3293 53.3307 48.1959 52.856 47.9293 52.568C47.6626 52.2693 47.2253 52.12 46.6173 52.12C46.2439 52.12 45.8706 52.168 45.4973 52.264C45.1239 52.36 44.7293 52.5147 44.3133 52.728C44.1639 52.8027 44.0359 52.8293 43.9293 52.808C43.8226 52.776 43.7373 52.7173 43.6733 52.632C43.6093 52.5467 43.5719 52.4507 43.5613 52.344C43.5506 52.2267 43.5719 52.1147 43.6253 52.008C43.6893 51.9013 43.7853 51.816 43.9133 51.752C44.3826 51.5173 44.8466 51.3467 45.3053 51.24C45.7639 51.1333 46.2013 51.08 46.6173 51.08C47.2893 51.08 47.8439 51.192 48.2813 51.416C48.7186 51.6293 49.0439 51.96 49.2573 52.408C49.4706 52.8453 49.5773 53.4107 49.5773 54.104V58.44C49.5773 58.6533 49.5239 58.8187 49.4173 58.936C49.3213 59.0533 49.1773 59.112 48.9853 59.112C48.7826 59.112 48.6279 59.0533 48.5213 58.936C48.4146 58.8187 48.3613 58.6533 48.3613 58.44V57.192H48.5053C48.4199 57.5973 48.2546 57.944 48.0093 58.232C47.7746 58.52 47.4813 58.744 47.1293 58.904C46.7773 59.064 46.3826 59.144 45.9453 59.144ZM56.9226 59.112C56.7306 59.112 56.5813 59.0587 56.4746 58.952C56.368 58.8347 56.3146 58.6747 56.3146 58.472V48.248C56.3146 48.0347 56.368 47.8747 56.4746 47.768C56.5813 47.6613 56.7306 47.608 56.9226 47.608C57.0933 47.608 57.2266 47.6453 57.3226 47.72C57.4293 47.784 57.5253 47.896 57.6106 48.056L61.9946 56.312H61.5146L65.8826 48.056C65.968 47.896 66.0586 47.784 66.1546 47.72C66.2506 47.6453 66.3893 47.608 66.5706 47.608C66.752 47.608 66.896 47.6613 67.0026 47.768C67.1093 47.8747 67.1626 48.0347 67.1626 48.248V58.472C67.1626 58.6747 67.1093 58.8347 67.0026 58.952C66.9066 59.0587 66.7573 59.112 66.5546 59.112C66.3626 59.112 66.2133 59.0587 66.1066 58.952C66 58.8347 65.9466 58.6747 65.9466 58.472V49.48H66.3306L62.3306 56.984C62.256 57.1227 62.176 57.224 62.0906 57.288C62.016 57.3413 61.904 57.368 61.7546 57.368C61.6053 57.368 61.488 57.336 61.4026 57.272C61.3173 57.208 61.2426 57.112 61.1786 56.984L57.1306 49.464H57.5146V58.472C57.5146 58.6747 57.4613 58.8347 57.3546 58.952C57.2586 59.0587 57.1146 59.112 56.9226 59.112ZM73.2981 59.144C72.4768 59.144 71.7675 58.984 71.1701 58.664C70.5835 58.3333 70.1248 57.8693 69.7941 57.272C69.4741 56.6747 69.3141 55.96 69.3141 55.128C69.3141 54.3173 69.4741 53.6133 69.7941 53.016C70.1141 52.408 70.5515 51.9333 71.1061 51.592C71.6715 51.2507 72.3221 51.08 73.0581 51.08C73.5808 51.08 74.0501 51.1707 74.4661 51.352C74.8821 51.5227 75.2341 51.7733 75.5221 52.104C75.8208 52.4347 76.0448 52.8347 76.1941 53.304C76.3541 53.7733 76.4341 54.3013 76.4341 54.888C76.4341 55.0587 76.3861 55.1867 76.2901 55.272C76.1941 55.3467 76.0555 55.384 75.8741 55.384H70.3061V54.536H75.5701L75.3141 54.744C75.3141 54.168 75.2288 53.6827 75.0581 53.288C74.8875 52.8827 74.6368 52.5733 74.3061 52.36C73.9861 52.1467 73.5808 52.04 73.0901 52.04C72.5461 52.04 72.0821 52.168 71.6981 52.424C71.3248 52.6693 71.0421 53.016 70.8501 53.464C70.6581 53.9013 70.5621 54.4133 70.5621 55V55.096C70.5621 56.0773 70.7968 56.824 71.2661 57.336C71.7461 57.848 72.4235 58.104 73.2981 58.104C73.6608 58.104 74.0181 58.056 74.3701 57.96C74.7328 57.864 75.0848 57.704 75.4261 57.48C75.5755 57.384 75.7088 57.3413 75.8261 57.352C75.9541 57.352 76.0555 57.3893 76.1301 57.464C76.2048 57.528 76.2528 57.6133 76.2741 57.72C76.3061 57.816 76.2955 57.9227 76.2421 58.04C76.1995 58.1573 76.1088 58.2587 75.9701 58.344C75.6181 58.6 75.2021 58.7973 74.7221 58.936C74.2421 59.0747 73.7675 59.144 73.2981 59.144ZM81.2698 59.144C80.5764 59.144 79.9684 58.9787 79.4457 58.648C78.9338 58.3173 78.5338 57.8533 78.2458 57.256C77.9684 56.648 77.8298 55.9333 77.8298 55.112C77.8298 54.28 77.9684 53.5653 78.2458 52.968C78.5338 52.36 78.9338 51.896 79.4457 51.576C79.9684 51.2453 80.5764 51.08 81.2698 51.08C81.9738 51.08 82.5764 51.256 83.0778 51.608C83.5791 51.96 83.9151 52.4347 84.0858 53.032H83.9098V48.264C83.9098 48.0507 83.9631 47.8907 84.0698 47.784C84.1871 47.6667 84.3524 47.608 84.5658 47.608C84.7684 47.608 84.9231 47.6667 85.0298 47.784C85.1471 47.8907 85.2058 48.0507 85.2058 48.264V58.44C85.2058 58.6533 85.1524 58.8187 85.0458 58.936C84.9391 59.0533 84.7791 59.112 84.5658 59.112C84.3631 59.112 84.2031 59.0533 84.0858 58.936C83.9791 58.8187 83.9258 58.6533 83.9258 58.44V56.92L84.1018 57.144C83.9311 57.752 83.5898 58.2373 83.0778 58.6C82.5764 58.9627 81.9738 59.144 81.2698 59.144ZM81.5418 58.104C82.0218 58.104 82.4431 57.9867 82.8058 57.752C83.1684 57.5173 83.4458 57.176 83.6378 56.728C83.8404 56.28 83.9418 55.7413 83.9418 55.112C83.9418 54.1413 83.7231 53.4 83.2858 52.888C82.8591 52.376 82.2778 52.12 81.5418 52.12C81.0511 52.12 80.6244 52.2373 80.2618 52.472C79.9098 52.696 79.6324 53.032 79.4298 53.48C79.2378 53.9173 79.1418 54.4613 79.1418 55.112C79.1418 56.072 79.3604 56.8133 79.7978 57.336C80.2351 57.848 80.8164 58.104 81.5418 58.104ZM90.8699 59.144C90.1125 59.144 89.4565 58.9787 88.9019 58.648C88.3472 58.3173 87.9152 57.8533 87.6059 57.256C87.3072 56.648 87.1579 55.9333 87.1579 55.112C87.1579 54.4933 87.2432 53.9387 87.4139 53.448C87.5845 52.9467 87.8352 52.52 88.1659 52.168C88.4965 51.816 88.8859 51.5493 89.3339 51.368C89.7925 51.176 90.3045 51.08 90.8699 51.08C91.6272 51.08 92.2832 51.2453 92.8379 51.576C93.3925 51.9067 93.8192 52.376 94.1179 52.984C94.4272 53.5813 94.5819 54.2907 94.5819 55.112C94.5819 55.7307 94.4965 56.2853 94.3259 56.776C94.1552 57.2667 93.9045 57.6933 93.5739 58.056C93.2432 58.408 92.8485 58.68 92.3899 58.872C91.9419 59.0533 91.4352 59.144 90.8699 59.144ZM90.8699 58.104C91.3499 58.104 91.7712 57.9867 92.1339 57.752C92.4965 57.5173 92.7739 57.176 92.9659 56.728C93.1685 56.28 93.2699 55.7413 93.2699 55.112C93.2699 54.1413 93.0512 53.4 92.6139 52.888C92.1872 52.376 91.6059 52.12 90.8699 52.12C90.3792 52.12 89.9525 52.2373 89.5899 52.472C89.2379 52.696 88.9605 53.032 88.7579 53.48C88.5659 53.9173 88.4699 54.4613 88.4699 55.112C88.4699 56.072 88.6885 56.8133 89.1259 57.336C89.5632 57.848 90.1445 58.104 90.8699 58.104ZM99.3151 59.112C99.1338 59.112 98.9738 59.064 98.8351 58.968C98.6965 58.8613 98.5791 58.7013 98.4831 58.488L95.7151 52.024C95.6405 51.864 95.6138 51.7147 95.6351 51.576C95.6565 51.4373 95.7205 51.3253 95.8271 51.24C95.9338 51.1547 96.0831 51.112 96.2751 51.112C96.4458 51.112 96.5791 51.1493 96.6751 51.224C96.7711 51.2987 96.8565 51.432 96.9311 51.624L99.5551 58.04H99.1231L101.795 51.624C101.87 51.432 101.955 51.2987 102.051 51.224C102.147 51.1493 102.286 51.112 102.467 51.112C102.638 51.112 102.766 51.1547 102.851 51.24C102.947 51.3253 103 51.4373 103.011 51.576C103.032 51.704 103.011 51.848 102.947 52.008L100.147 58.488C100.072 58.7013 99.9605 58.8613 99.8111 58.968C99.6725 59.064 99.5071 59.112 99.3151 59.112ZM105.294 59.08C105.08 59.08 104.92 59.0213 104.814 58.904C104.707 58.776 104.654 58.6 104.654 58.376V51.832C104.654 51.608 104.707 51.4373 104.814 51.32C104.92 51.2027 105.08 51.144 105.294 51.144C105.496 51.144 105.656 51.2027 105.774 51.32C105.891 51.4373 105.95 51.608 105.95 51.832V58.376C105.95 58.6 105.891 58.776 105.774 58.904C105.667 59.0213 105.507 59.08 105.294 59.08ZM105.294 49.352C105.027 49.352 104.819 49.2827 104.67 49.144C104.52 48.9947 104.446 48.7973 104.446 48.552C104.446 48.296 104.52 48.104 104.67 47.976C104.819 47.8373 105.027 47.768 105.294 47.768C105.571 47.768 105.779 47.8373 105.918 47.976C106.067 48.104 106.142 48.296 106.142 48.552C106.142 48.7973 106.067 48.9947 105.918 49.144C105.779 49.2827 105.571 49.352 105.294 49.352ZM111.668 59.144C110.89 59.144 110.218 58.9733 109.652 58.632C109.087 58.2907 108.65 57.816 108.34 57.208C108.042 56.5893 107.892 55.8747 107.892 55.064C107.892 54.4453 107.978 53.8907 108.148 53.4C108.319 52.9093 108.57 52.4933 108.9 52.152C109.231 51.8 109.626 51.5333 110.084 51.352C110.554 51.1707 111.082 51.08 111.668 51.08C112.052 51.08 112.452 51.1387 112.868 51.256C113.284 51.3733 113.663 51.576 114.004 51.864C114.111 51.9387 114.18 52.0293 114.212 52.136C114.244 52.2427 114.244 52.3493 114.212 52.456C114.18 52.552 114.127 52.6373 114.052 52.712C113.978 52.776 113.882 52.8133 113.764 52.824C113.658 52.8347 113.546 52.7973 113.428 52.712C113.151 52.4987 112.868 52.3493 112.58 52.264C112.292 52.1787 112.015 52.136 111.748 52.136C111.332 52.136 110.97 52.2053 110.66 52.344C110.351 52.472 110.09 52.6587 109.876 52.904C109.663 53.1493 109.498 53.4533 109.38 53.816C109.274 54.1787 109.22 54.6 109.22 55.08C109.22 56.008 109.439 56.744 109.876 57.288C110.314 57.8213 110.938 58.088 111.748 58.088C112.015 58.088 112.287 58.0453 112.564 57.96C112.852 57.8747 113.14 57.7253 113.428 57.512C113.546 57.4267 113.658 57.3893 113.764 57.4C113.871 57.4107 113.962 57.4533 114.036 57.528C114.111 57.592 114.159 57.6773 114.18 57.784C114.212 57.8907 114.212 57.9973 114.18 58.104C114.148 58.2 114.079 58.2853 113.972 58.36C113.631 58.6373 113.258 58.84 112.852 58.968C112.447 59.0853 112.052 59.144 111.668 59.144ZM112.132 50.104C112.058 50.2107 111.967 50.2747 111.86 50.296C111.754 50.3067 111.652 50.2907 111.556 50.248C111.46 50.1947 111.391 50.12 111.348 50.024C111.306 49.928 111.316 49.816 111.38 49.688L112.724 47.08C112.799 46.9307 112.895 46.8347 113.012 46.792C113.13 46.7493 113.247 46.744 113.364 46.776C113.492 46.7973 113.599 46.8507 113.684 46.936C113.77 47.0213 113.818 47.1227 113.828 47.24C113.85 47.3573 113.818 47.48 113.732 47.608L112.132 50.104Z" fill="#252525"/>
</svg>
